<?xml version="1.0" encoding="utf-8"?>
<!-- Generator: Adobe Illustrator 27.8.1, SVG Export Plug-In . SVG Version: 6.00 Build 0)  -->
<svg version="1.1" id="Layer_1" xmlns="http://www.w3.org/2000/svg" xmlns:xlink="http://www.w3.org/1999/xlink" x="0px" y="0px"
	 viewBox="0 0 400 400" style="enable-background:new 0 0 400 400;" xml:space="preserve">
<path d="M392,219.84c-6.59,18.55-13.8,36.84-23.85,53.84c-10.85,18.35-26.29,32.51-42.73,45.62
	c-13.52,10.79-28.05,19.94-44.87,24.78c-19.88,5.72-39.92,4.73-60.03,1.22c-18.9-3.3-37.78-6.82-56.77-9.49
	c-31.3-4.4-60.12,3.01-86.66,19.82c-4.31,2.73-8.51,5.62-13.11,8.67c-18.36-24.18-36.65-48.26-55.56-73.17
	c0.82-0.44,1.71-0.71,2.33-1.28c14.7-13.68,29.11-27.67,44.1-41.01c16.75-14.91,33.47-29.96,51.22-43.64
	c19.25-14.84,40.77-17.11,63.47-7.33c18.54,7.98,38.24,11.94,58.05,15.2c20.16,3.32,40.37,6.3,60.48,9.9
	c5.16,0.92,10.31,3.08,14.93,5.63c8.26,4.56,8.38,11.57,0.59,17.02c-7.73,5.4-16.73,7.59-25.8,9.39
	c-17.94,3.57-36.12,4.36-54.35,4.45c-10.1,0.05-20.21,0.01-30.31,0.01c-1.22,0-2.43,0-3.8,0c0,7.57,0,14.75,0,22.46
	c1.36,0,2.68,0,4,0c25.32,0,50.65,0.18,75.97-0.05c28.53-0.26,51.19-11.98,67.65-35.49c6-8.57,12.14-17.07,18.55-25.35
	c5.17-6.68,11.33-12.29,19.8-14.66c8.32-2.33,12.62-0.63,16.71,6.71C392,215.35,392,217.59,392,219.84z"/>
<path d="M278.88,195.58c-5.73-4.92-11.48-9.67-17.03-14.64c-16.25-14.55-32.8-28.79-48.5-43.91
	c-10.88-10.49-18.76-23.18-21.64-38.52c-5.33-28.37,11.55-56.23,38.37-62.29c18.8-4.25,34.4,1.53,46.59,16.46
	c0.86,1.06,1.66,2.16,2.92,3.8c0.62-0.9,1.05-1.64,1.58-2.3c12.27-15.39,28.06-22.3,47.51-18.16c19.69,4.2,32.08,17.03,37.74,36.05
	c6.03,20.27,0.67,38.36-11.97,54.7c-10.68,13.82-23.91,25.04-37.1,36.29c-12.05,10.28-24.13,20.52-36.2,30.77
	C280.51,194.39,279.81,194.87,278.88,195.58z"/>
</svg>
