<?xml version="1.0" encoding="utf-8"?>
<!-- Generator: Adobe Illustrator 27.8.1, SVG Export Plug-In . SVG Version: 6.00 Build 0)  -->
<svg version="1.1" id="Layer_1" xmlns="http://www.w3.org/2000/svg" xmlns:xlink="http://www.w3.org/1999/xlink" x="0px" y="0px"
	 viewBox="0 0 400 400" style="enable-background:new 0 0 400 400;" xml:space="preserve">
<path d="M201.02,187.93c1.66-2.09,2.42-3.27,3.38-4.23c42.15-42.17,84.31-84.33,126.49-126.48c8.23-8.23,19.08-8.74,26.58-1.3
	c6.62,6.57,7.14,16.96,1.18,24.13c-0.87,1.05-1.86,2.02-2.83,2.99c-46.83,46.84-93.69,93.66-140.48,140.54
	c-5.45,5.46-11.64,8.34-19.21,5.87c-3.06-1-6.12-2.97-8.41-5.25c-47.45-47.28-94.8-94.66-142.15-142.04
	c-7.83-7.84-8.19-18.67-0.97-26.03c7.34-7.48,18.36-7.27,26.3,0.66c42.28,42.22,84.53,84.47,126.76,126.73
	C198.71,184.55,199.48,185.87,201.02,187.93z"/>
<path d="M201.43,307.77c1.3-1.92,1.91-3.22,2.87-4.17c42.14-42.18,84.33-84.32,126.45-126.51c5.23-5.24,11.12-7.92,18.54-6.01
	c12.87,3.31,17.8,18.76,9.23,28.89c-0.96,1.14-2.04,2.19-3.1,3.24c-46.48,46.49-92.96,92.97-139.45,139.45
	c-10.04,10.03-19.68,9.99-29.77-0.11c-46.83-46.84-93.68-93.67-140.5-140.52c-8-8-8.35-18.9-0.95-26.3
	c6.62-6.62,16.94-7.1,24.12-1.1c1.34,1.12,2.55,2.39,3.78,3.62c41.73,41.71,83.46,83.42,125.18,125.15
	C198.78,304.37,199.57,305.51,201.43,307.77z"/>
</svg>
