<?xml version="1.0" encoding="UTF-8"?>
<svg id="Layer_1" data-name="Layer 1" xmlns="http://www.w3.org/2000/svg" viewBox="0 0 259.71 293.26">
  <defs>
    <style>
      .cls-1 {
        fill: #fff;
        stroke-width: 0px;
      }
    </style>
  </defs>
  <path class="cls-1" d="m244.22,219.21c-26.32,7.57-52.61,15.23-78.93,22.8-1.43.41-2.01,1.24-2.51,2.51-3.22,8.2-11.56,13.04-20.26,11.7-12.42-1.91-24.83-3.92-37.24-5.9-2.5-.4-3.64-1.61-3.29-3.4.34-1.71,1.72-2.4,4.1-2.02,12.26,1.94,24.52,3.89,36.79,5.84,8.1,1.29,15.17-4.25,15.7-12.32.43-6.5-3.65-11.99-10.36-13.72-19.52-5.05-39.06-10.01-58.57-15.1-7.69-2.01-15.02-1.34-22.18,2.12-9.69,4.68-19.38,9.37-29.2,13.77-2.95,1.32-6.28,2.12-9.51,2.43-7.71.73-15.46,1.09-23.21,1.43-2.02.09-2.44.79-2.43,2.69.07,16.94.04,33.88.05,50.81,0,.66.05,1.33.1,2.3.97-.17,1.62-.26,2.27-.39,8.25-1.71,16.51-3.41,24.75-5.16,6.27-1.33,12.49-2.66,18.98-1.45,26.25,4.92,52.53,9.71,78.78,14.66,5.17.98,9.94.38,14.72-1.79,23.15-10.53,46.34-20.96,69.53-31.42,13.24-5.98,26.46-11.97,39.72-17.91,4.16-1.86,6.9-4.85,7.56-9.4,1.27-8.86-6.59-15.59-15.35-13.07Z"/>
  <path class="cls-1" d="m123.57,150.86c.04,12.68,4.01,24.11,11.31,34.38,10.63,14.95,25.32,24.63,41.83,31.88.64.28,1.65.21,2.31-.08,13.02-5.68,24.93-13.04,34.77-23.42,11.3-11.92,17.88-25.89,18.19-39.83.14-10.61-2.3-17.51-6.94-22.4-9.26-9.75-24.69-11.07-36.03-2.66-3.31,2.46-5.91,5.92-8.68,9.06-1.78,2.02-3.59,2.11-5.12-.09-.77-1.11-1.48-2.27-2.3-3.35-7.49-9.8-20.05-13.75-31.46-9.94-11.29,3.77-17.93,13.56-17.88,26.46Z"/>
  <path class="cls-1" d="m10.79,117.28c-.09,19.49-.04,38.99-.03,58.49,0,4.49,2.03,6.57,6.42,6.58,21.23.01,42.46,0,63.68,0,.54,0,1.08-.12,1.95-.21-1.12-.9-1.94-1.55-2.75-2.22-16.99-14.13-20.98-43.37-16.33-57.58,4.5-13.75,18.46-22.68,33.37-18.09,1.06.33,2.14.6,3.41.95.16-1.53.28-2.86.46-4.19.71-5.36,2.15-10.46,5.26-14.97,2.38-3.45,2.4-3.46-.38-6.72-.93-1.08-1.96-2.09-3.03-3.02-4.55-3.97-9.84-6.66-15.46-8.68-20.02-7.22-40.16-6.73-60.3-.58-8.06,2.46-15.6,6.05-21.55,12.27-7.24,7.57-7.36,16.25-.18,23.9,3.77,4.02,5.5,8.58,5.48,14.09Zm31.13-30.64c6.34-.02,11.43,5.13,11.4,11.55-.03,6.07-5.19,11.2-11.29,11.22-6.29.01-11.52-5.27-11.45-11.55.08-6.07,5.25-11.19,11.34-11.21Zm-4.48,61.62c6.26.06,11.24,5.16,11.2,11.48-.04,6.18-5.28,11.3-11.5,11.22-6.23-.08-11.26-5.25-11.2-11.51.06-6.23,5.21-11.24,11.5-11.18Z"/>
  <path class="cls-1" d="m152.25,117.63c9.74.65,17.73,4.82,24.08,12.2.47.55.98,1.06,1.55,1.68.75-.83,1.35-1.49,1.96-2.15,4.2-4.59,9.23-7.89,15.13-9.9,18.16-6.2,37.18,3.82,41.51,22.1,2.45,10.36.74,20.51-2.7,30.4-1.2,3.45-2.84,6.75-4.41,10.44h2.32c3.84,0,7.68,0,11.52,0,3.8,0,4.65-.84,4.65-4.64,0-38.09,0-76.18,0-114.26,0-.8-.07-1.6-.11-2.43h-45.55v3.13c0,13.93,0,27.85,0,41.78,0,.75.05,1.52-.06,2.25-.25,1.64-1.25,2.63-2.92,2.54-1.56-.09-2.42-1.11-2.49-2.69-.04-.75-.03-1.5-.03-2.26,0-14.15-.04-28.3.04-42.45.01-1.97-.48-2.56-2.5-2.55-13.85.09-27.7.04-41.55.05-.72,0-1.43.08-2.1.12-.1.48-.18.7-.18.92-.01,17.99,0,35.98-.06,53.97,0,1.48.68,1.68,1.92,1.76Z"/>
  <path class="cls-1" d="m95.25,109.8c-2.93-1.13-6.6-1.33-9.72-.77-9.38,1.69-14.93,7.92-16.94,16.96-2.78,12.51-.46,24.57,4.8,36.05,3.43,7.49,8.5,13.72,16.05,17.44,5.32,2.62,10.74,4.21,16.66,1.29,1.39-.69,3.72-.54,5.16.15,4.86,2.35,9.18,1.04,13.69-1.23-.43-.97-.81-1.85-1.21-2.73-3.93-8.71-5.9-17.83-5.72-27.39.15-7.86,2.55-14.95,7.66-21,4.96-5.87,11.36-9.26,19.85-10.82-.91-1.27-1.38-2.27-2.15-2.91-1.14-.96-2.52-1.63-3.77-2.48-5.67-3.86-11.9-5.1-18.25-2.53-8.82,3.57-17.3,3.38-26.11-.03Zm-4,55.67c-1.3.95-2.7.78-3.6-.46-1.5-2.06-3.02-4.16-4.09-6.45-4.41-9.4-6.33-19.26-4.61-29.6.69-4.14,2.54-7.73,6.59-9.67.93-.45,1.97-.67,3.5-1.17.72.78,2.04,1.57,2.14,2.5.1.95-.78,2.7-1.58,2.95-3.73,1.16-5,4-5.35,7.34-1.13,10.58.98,20.47,6.79,29.48.33.5.73.96,1.01,1.49.75,1.4.47,2.66-.79,3.58Z"/>
  <path class="cls-1" d="m180.84,19.07c-.63,0-1.27.1-2.16.18.53.94.91,1.65,1.34,2.34,6.56,10.62,13.17,21.22,19.65,31.89.92,1.51,1.93,1.95,3.61,1.94,12.49-.06,24.98-.03,37.47-.03h4.47c-.4-.78-.57-1.19-.8-1.55-6.88-11.13-13.73-22.28-20.7-33.36-.47-.74-1.78-1.34-2.7-1.35-13.39-.09-26.78-.06-40.18-.05Z"/>
  <path class="cls-1" d="m173.51,21.52c-7.03,11.39-13.86,22.45-20.82,33.72h41.67c-7-11.32-13.82-22.35-20.85-33.72Z"/>
  <path class="cls-1" d="m221.71,4.87c-.03-3.57-1.32-4.84-4.96-4.85-7.37-.01-14.74,0-22.12,0-4.66,0-9.33-.03-13.99,0-2.49.02-4.11,1.13-4.21,3.18-.16,3.36-.05,6.74-.05,10.19h45.32c0-2.97.02-5.75,0-8.52Z"/>
  <path class="cls-1" d="m105.61,107.86c.18,1.74,1.21,2.79,3.03,2.63,1.83-.17,2.63-1.4,2.47-3.15-.79-8.53,1.22-15.95,8.07-21.67.64-.53.84-2.12.59-3.03-.22-.79-1.38-1.32-2.33-2.13-1.28.86-2.43,1.43-3.32,2.27-7.27,6.84-9.52,15.42-8.5,25.08Z"/>
  <path class="cls-1" d="m42.1,103.79c3.22-.07,5.66-2.57,5.65-5.78,0-3.29-2.59-5.82-5.89-5.76-3.14.05-5.73,2.68-5.7,5.77.03,3.26,2.69,5.85,5.94,5.77Z"/>
  <path class="cls-1" d="m37.22,165.42c3.09.05,5.83-2.57,5.88-5.63.06-3.3-2.47-5.94-5.73-5.98-3.16-.04-5.8,2.47-5.89,5.6-.09,3.21,2.53,5.96,5.73,6.02Z"/>
</svg>