<?xml version="1.0" encoding="UTF-8"?>
<svg id="Layer_1" data-name="Layer 1" xmlns="http://www.w3.org/2000/svg" viewBox="0 0 303.21 391.45">
  <defs>
    <style>
      .cls-1 {
        fill: #272626;
      }

      .cls-1, .cls-2 {
        stroke-width: 0px;
      }

      .cls-2 {
        fill: #1b7347;
      }
    </style>
  </defs>
  <path class="cls-1" d="m131.92,336.03c-1.83,0-3.65-.03-5.48.02-.87.02-1.36-.2-1.63-1.12-.68-2.34-1.52-4.63-2.12-7-.15-.61-.4-1.19-.6-1.79-.15-.44-.48-.51-.88-.51-7.34.01-14.68.01-22.01-.01-.75,0-.92.42-1.09.96-.83,2.76-1.68,5.51-2.46,8.28-.25.89-.75,1.19-1.63,1.18-3.69-.02-7.37-.01-11.06-.01-1.39,0-1.67-.37-1.24-1.72.78-2.44,1.59-4.86,2.37-7.3,1.44-4.52,2.86-9.05,4.3-13.57,1.32-4.16,2.67-8.3,4-12.46,1.36-4.26,2.7-8.52,4.06-12.78,1.22-3.8,2.5-7.59,3.67-11.41.5-1.61,1-3.23,1.53-4.83.25-.73.61-1.1,1.44-1.09,4.72.03,9.44.03,14.16,0,.94-.01,1.39.46,1.64,1.24,3.13,9.8,6.24,19.6,9.37,29.4,2.67,8.35,5.35,16.69,8.02,25.04.85,2.64,1.68,5.29,2.52,7.93.36,1.15.09,1.53-1.09,1.53-1.93.03-3.86.02-5.79.02h0Zm-21.64-20.58c2.55,0,5.1-.02,7.65.01.75.01.98-.19.74-.96-2.73-8.94-5.44-17.88-8.15-26.82-.08-.25-.04-.64-.39-.63-.34.01-.32.42-.39.66-2.65,8.92-5.29,17.86-7.95,26.78-.22.75-.03.99.74.98,2.58-.04,5.16-.02,7.75-.02h0Z"/>
  <path class="cls-1" d="m190.99,270.89c2.34,0,4.69.04,7.03-.02.98-.02,1.47.44,1.73,1.27,2.78,8.77,5.54,17.55,8.34,26.32,3.02,9.48,6.08,18.95,9.12,28.43.83,2.58,1.64,5.15,2.45,7.73.32,1.03.05,1.4-1.02,1.41-3.89.01-7.79-.01-11.68.01-.64,0-1-.22-1.2-.84-.78-2.42-1.57-4.83-2.22-7.29-.16-.61-.4-1.2-.6-1.79-.15-.44-.5-.48-.9-.48-7.34,0-14.68.01-22.01-.01-.76,0-.91.46-1.07.98-.83,2.76-1.68,5.51-2.47,8.28-.24.84-.69,1.17-1.54,1.16-3.72-.02-7.44,0-11.16-.01-1.37,0-1.63-.37-1.2-1.73.77-2.44,1.58-4.87,2.35-7.3,1.44-4.52,2.85-9.05,4.29-13.57,1.33-4.16,2.68-8.3,4.01-12.46,1.36-4.26,2.69-8.53,4.06-12.78,1.23-3.84,2.52-7.65,3.71-11.5.49-1.58.98-3.16,1.5-4.73.24-.74.63-1.09,1.46-1.07,2.34.02,4.68,0,7.02,0h0Zm-.03,16.11c-.33.19-.34.56-.44.88-2.62,8.79-5.22,17.59-7.83,26.38-.34,1.14-.3,1.19.95,1.19h14.89c1.23,0,1.24-.01.87-1.21-2.66-8.78-5.31-17.56-7.98-26.34-.08-.31-.04-.71-.46-.9h0Z"/>
  <path class="cls-1" d="m6.77,303.45v-31.32c0-.86.37-1.24,1.19-1.24,3.55,0,7.1-.01,10.65,0,.99,0,1.32.45,1.32,1.65,0,8.17,0,16.33.01,24.5,0,.36-.2.9.12,1.05.46.22.67-.36.91-.65,1.57-1.91,3.1-3.86,4.66-5.79,1.61-1.99,3.26-3.95,4.87-5.94,1.56-1.94,3.07-3.91,4.62-5.85,1.86-2.31,3.73-4.61,5.61-6.9.13-.16.24-.31.35-.47.7-1.04,1.5-1.7,2.95-1.65,3.75.13,7.51.04,11.26.05.44,0,.98-.13,1.19.38.2.47-.03.93-.34,1.32-4.28,5.46-8.56,10.93-12.84,16.39-2.51,3.2-5.01,6.4-7.54,9.59-.39.49-.27.86.04,1.35,7.15,11.46,14.28,22.94,21.42,34.41.26.41.56.82.35,1.3-.25.56-.82.39-1.28.39-3.96.01-7.92,0-11.89.01-.57,0-.93-.11-1.29-.71-5.37-8.74-10.8-17.44-16.18-26.17-.5-.81-.86-.84-1.42-.13-1.74,2.2-3.48,4.4-5.24,6.57-.34.42-.35.86-.35,1.35v17.37c0,1.38-.33,1.71-1.68,1.71-3.34,0-6.68.01-10.03,0-1.3,0-1.44-.17-1.44-1.46v-31.11Z"/>
  <path class="cls-1" d="m246.61,303.46c0-10.44,0-20.88,0-31.32,0-.94.43-1.26,1.28-1.26h42.06c1.6,0,1.84.24,1.84,1.82v7.65c0,1.43-.41,1.81-1.81,1.81-9.75-.01-19.5,0-29.25-.02-.76,0-.99.21-.98.99.04,4.41.05,8.82,0,13.23-.01.92.26,1.17,1.16,1.16,6.24-.03,12.47-.02,18.71-.02,1.53,0,1.71.19,1.71,1.74v7.86c0,1.4-.24,1.63-1.61,1.64-6.24,0-12.47.02-18.71-.02-1-.01-1.26.29-1.25,1.28.04,8.03.02,16.06.02,24.08,0,1.73-.21,1.93-1.98,1.93h-9.51c-1.59,0-1.66-.09-1.66-1.66v-30.89h0Z"/>
  <path class="cls-1" d="m249.26,379.25c-.53-.76-.87-1.44-1.39-1.95-2.01-1.95-1.72-4.43-1.69-6.87.03-1.73,0-1.73,1.72-1.73,3.38,0,6.75.03,10.13-.02,1.07-.02,2.11.18,3.17.28,1.43.14,2.98,2.13,3.13,3.6.24,2.42-1.01,4.19-2.44,5.89-.19.23-.41.43-.7.74h7.1c-.71-1.09-.89-2.25-.85-3.49.05-1.54.61-2.86,1.5-4.03,1.03-1.35,2.39-2.52,4.02-2.85,1.64-.34,3.43-.39,5.06.34,3.19,1.44,4.91,3.88,4.9,7.45,0,.41-.05.84.01,1.24.13.81.5,1.4,1.45,1.4,4.38-.01,8.75-.01,13.13.01.58,0,.76-.15.74-.74-.09-3.09-1.67-4.59-4.73-4.81-2.09-.16-4.2-.06-6.3-.02-.63.01-.84-.13-.81-.79.06-1.2.03-2.41.01-3.62-.01-.45.12-.6.58-.58,2.82.12,5.64-.21,8.45.21,4.22.63,7.6,4.39,7.72,8.67.05,1.96,0,3.93.04,5.89.01.56-.12.76-.73.76-6.13-.03-12.27-.01-18.4-.03-1.6,0-2.85-.69-3.72-2.12-1.71,1.72-3.78,2.16-6.07,2.15-10.51-.04-21.02-.03-31.53-.01-1.64,0-3.16-.23-4.38-1.44-.27-.26-.43-.22-.67.02-1.16,1.14-2.6,1.42-4.17,1.42-5.96-.02-11.92-.01-17.88,0-1.62,0-3.07-.4-4.15-1.69-.27-.32-.44-.34-.72-.04-2.15,2.31-6.87,2.29-9.81-.27-3.04-2.64-3.43-7.72-.69-10.81,1.57-1.76,3.41-2.65,5.68-2.71,2.38-.06,4.76.01,7.13-.04.68-.01.78.23.77.82-.03,2.55-.02,5.1,0,7.65,0,1.6.49,2.09,2.07,2.09h17.37c1.6,0,2.29-.67,2.29-2.27,0-2.48.02-4.96,0-7.44,0-.65.14-.91.84-.87,1.06.06,2.14.04,3.2-.02.71-.04.93.15.92.89-.05,2.62-.02,5.24,0,7.86,0,1.31.56,1.85,1.87,1.86,2.24.02,4.47.02,6.86.02h0Zm-40.36-3.78c0-1.2-.6-1.8-1.83-1.8-.34,0-.69-.02-1.03.01-1.53.11-2.71,1.42-2.64,2.9.08,1.5,1.35,2.68,2.88,2.66,1.51-.02,2.56-1.12,2.62-2.74v-1.03h0Zm69.1,1.08c.01-1.57-1.21-2.85-2.75-2.88-1.58-.03-2.88,1.27-2.88,2.87.01,1.55,1.27,2.82,2.82,2.83,1.54.01,2.79-1.25,2.81-2.82h0Zm-24.94-2.88c-.98,0-1.26.39-.75,1.22.84,1.38,1.77,2.7,2.65,4.05.24.37.59.46.86.19,1.06-1.07,2.22-2.09,2.85-3.5.43-.98,0-1.73-1.07-1.87-.88-.11-4.54-.09-4.54-.09Z"/>
  <path class="cls-1" d="m43.29,379.25c-.8-1.22-1.46-2.38-2.29-3.41-.58-.73-.78-1.45-.75-2.34.05-1.34.03-2.69,0-4.03,0-.55.11-.78.73-.78,4.07.03,8.13.01,12.2.03.82,0,1.63.19,2.39.48,2.75,1.06,3.41,3.31,2.44,6.13-.26.75-.71,1.41-1.19,2.03-.46.6-.95,1.17-1.52,1.85,1.91,0,3.79.1,5.64-.04,1.06-.08,1.28-1.1,1.3-2.03.03-1.58,0-3.17,0-4.76,0-3.86.02-7.72,0-11.58,0-.66.15-.9.85-.87,1.13.06,2.27.04,3.41.01.53-.02.71.15.71.7-.02,5.44.01,10.89-.02,16.33-.01,2.42-.72,4.58-2.8,6.06-.93.66-1.96,1.13-3.11,1.13-7.89.02-15.78,0-23.67.03-1.33.01-2.33-.53-3.13-1.51-.35-.43-.57-.42-.99-.09-1.5,1.17-3.21,1.66-5.13,1.61-2.96-.07-5.93-.02-8.89-.02-.72,0-1.43-.02-2.11-.53-.27,1.36-.59,2.6-1.33,3.73-1.73,2.62-4.14,3.91-7.27,4.04-3.91.17-7.24-2.53-8.31-5.92-.32-1-.41-1.99-.42-3-.03-3.31,0-6.62-.03-9.92,0-.76.25-.92.94-.88.96.06,1.93.07,2.89,0,.84-.06,1.11.15,1.09,1.05-.06,3.13,0,6.27-.03,9.41,0,1.83.64,3.32,2.38,4.06,2.55,1.08,5.22-1.01,5.23-4.09.03-6.96.03-13.92-.02-20.88,0-1.07.25-1.45,1.34-1.34.92.1,1.86.07,2.79,0,.71-.05.84.22.84.87-.02,5.34-.02,10.68-.01,16.02,0,.41.04.82.11,1.23.15.78.67,1.16,1.44,1.17.96.02,1.93,0,3.07,0-.78-1.16-.93-2.36-.88-3.64.06-1.54.64-2.85,1.55-4.01,2.85-3.67,7.86-3.68,10.82-1.42,1.99,1.52,3.11,3.53,3.09,6.05-.02,2.77.12,3.16,3.06,3.03,1.17,0,2.33.04,3.59.04h0Zm-11.54-2.78c-.02-1.56-1.28-2.81-2.82-2.8s-2.8,1.29-2.8,2.84,1.31,2.89,2.89,2.85c1.55-.03,2.74-1.29,2.73-2.89Zm15.33-2.8c-.96.01-1.21.41-.69,1.26.83,1.34,1.74,2.64,2.6,3.96.26.4.6.53.93.2,1.01-1.03,2.1-2,2.74-3.32.52-1.07.12-1.87-1.05-2.02-.84-.11-4.53-.08-4.53-.08Z"/>
  <path class="cls-1" d="m149.6,379.25c-.89-1.28-1.7-2.45-2.51-3.63-.21-.3-.51-.64-.52-.96-.05-1.86-.03-3.72-.03-5.58,0-.42.32-.37.59-.37,4.17,0,8.34-.1,12.51.05,2.55.09,4.41,1.18,4.9,3.13.41,1.62.1,3.2-.85,4.62-.62.93-1.28,1.83-2.24,2.74,1.98,0,3.76.03,5.53-.02.57-.02,1.06-.29,1.3-.95.19-.54.23-1.07.23-1.62,0-5.2.03-10.41-.03-15.61,0-.96.28-1.16,1.15-1.1,1.03.08,2.07.04,3.1.01.5-.01.73.09.73.67-.02,5.48,0,10.96-.02,16.44-.02,2.39-.74,4.5-2.78,5.97-.9.65-1.9,1.13-3,1.13-7.99.03-15.99.02-23.98.02-1.03,0-1.91-.4-2.67-1.04-.53-.45-.94-.55-1.49-.01-.49.48-1.14.8-1.84.88-1.81.2-3.64.62-5.35-.41-.11-.07-.32-.07-.36-.16-.72-1.68-1.52-.84-2.54-.23-3.72,2.22-8.97.71-10.74-3.73-.17-.41-.32-.7-.85-.66-.64.05-1.17.22-1.37.87-.11.35-.12.75-.12,1.12,0,3.07-.04,6.14.02,9.2.02.9-.26,1.1-1.09,1.04-1.03-.07-2.07-.04-3.1-.01-.49.01-.73-.06-.73-.66.03-3.58.03-7.17.03-10.75,0-3.22,2.66-5.75,5.94-5.75.74,0,1.11-.18,1.4-.86,1.46-3.49,5.36-4.78,8.45-4.16,3.32.66,6.04,3.58,6.16,6.95.03.75.11,1.51.15,2.26.03.55.34.89.82,1.08,1.83.76,3.4-.29,3.4-2.29v-14.99c0-.34.03-.69,0-1.03-.07-.65.12-.93.83-.89,1.03.06,2.07.07,3.1,0,.79-.05,1.03.17,1.02,1-.04,5.38-.02,10.75-.02,16.13,0,.41,0,.8.16,1.21.25.62.69.94,1.31.95,1.77.02,3.51,0,5.41,0h0Zm-23.85.03c1.56.01,2.85-1.21,2.89-2.76.04-1.53-1.22-2.85-2.77-2.89-1.61-.04-2.94,1.24-2.95,2.81,0,1.54,1.28,2.83,2.83,2.84h0Zm27.61-5.61c-.96.01-1.21.41-.69,1.25.83,1.34,1.74,2.64,2.6,3.96.26.4.6.54.93.21,1.01-1.03,2.1-2,2.74-3.32.54-1.1.1-1.91-1.14-2.05-.82-.08-4.44-.05-4.44-.05Z"/>
  <path class="cls-1" d="m92.93,384.42c-1.8.07-3.36-.16-4.92-.44-2.61-.46-5.15-3.34-5.64-6.01-.49-2.7.26-4.94,1.93-6.87,1.76-2.05,4.2-2.61,6.82-2.35,3.3.33,5.18,2.53,6.47,5.3.35.76.27,1.75.26,2.63-.04,2.78.22,5.57-.17,8.35-.5,3.51-3.37,6.29-7.05,6.42-2.63.09-4.98-.53-6.9-2.45-.48-.48-.49-.77.02-1.23.78-.72,1.51-1.5,2.23-2.29.38-.42.59-.37,1.07-.05,1.86,1.23,3.58,1.69,5.16.04.21-.25.37-.55.72-1.05Zm-1.84-5.19c1.21.01,1.82-.59,1.82-1.8,0-.38.02-.76,0-1.14-.13-1.56-1.36-2.66-2.9-2.63-1.49.03-2.71,1.19-2.78,2.65-.08,1.46,1.08,2.75,2.64,2.9.4.06.81.02,1.23.02h-.01Z"/>
  <path class="cls-1" d="m72.73,372.11c0-3.72.03-7.44-.02-11.16-.01-.8.23-1,.98-.95,1.04-.01,1.82-.01,2.89,0,.84-.07,1.08.16,1.08,1.05-.04,6.86-.02,13.71-.03,20.57,0,.85.19,1.92-.38,2.41-.48.42-3.76.41-4.19.02-.38-.34-.33-1.36-.33-2.1-.01-3.28,0-6.55,0-9.83Z"/>
  <path class="cls-1" d="m179.21,372.11c0-3.72.03-7.44-.02-11.16,0-.8.23-1,.98-.95.96.07,1.93.08,2.89,0,.84-.07,1.08.16,1.08,1.05-.04,6.99-.02,13.99-.02,20.98,0,2.19,0,2.2-2.17,2.19-.89,0-2.09.29-2.59-.16-.45-.41-.15-1.66-.15-2.53,0-3.15,0-6.28,0-9.42h0Z"/>
  <path class="cls-1" d="m297.28,388.8c-.03,1.47-1.25,2.66-2.72,2.65-1.51-.01-2.76-1.29-2.7-2.78.05-1.46,1.31-2.63,2.78-2.6s2.67,1.27,2.64,2.73Z"/>
  <path class="cls-1" d="m201.28,364.79c-.07-1.51,1.14-2.53,2.55-2.5,1.46.02,2.59,1.14,2.59,2.59s-1.17,2.61-2.7,2.58c-1.56-.03-2.45-1.01-2.44-2.67h0Z"/>
  <path class="cls-1" d="m207.29,364.86c-.15-1.4,1.27-2.56,2.49-2.54,1.51.03,2.65,1.15,2.64,2.65-.02,1.51-1.17,2.51-2.86,2.49-1.41-.02-2.29-1.03-2.27-2.6h0Z"/>
  <path class="cls-1" d="m235.1,386.03c1.46,0,2.54,1.07,2.55,2.52,0,1.48-1.13,2.64-2.58,2.63-1.38-.01-2.56-1.18-2.58-2.57-.02-1.45,1.12-2.59,2.61-2.58Z"/>
  <path class="cls-1" d="m243.67,388.61c.02,1.47-1.12,2.63-2.57,2.62-1.38-.01-2.55-1.17-2.58-2.55-.03-1.41,1.09-2.57,2.49-2.61,1.46-.04,2.64,1.09,2.66,2.54h0Z"/>
  <path class="cls-1" d="m111.33,169.67c-1.04-.78-2.09-1.54-3.12-2.34-4.38-3.37-8.6-6.95-12.8-10.54-1.74-1.49-3.33-3.14-5.08-4.61-2.29-1.93-4.24-4.21-6.47-6.21-.47-.42-2.8-.26-2.86-1.24-.02-.4.62-.99.28-1.45-2.02-2.79-4.28-5.39-6.62-7.89-4.44-4.74-8.02-10.09-11.54-15.49-3.16-4.85-5.82-9.97-8.18-15.26-1.4-3.15-2.59-6.39-3.63-9.66-1.2-3.8-2.09-7.69-2.56-11.67-.48-4-.53-8.02-.38-12.04.2-5.29,1.32-10.44,2.95-15.45,1.25-3.87,2.99-7.55,5.06-11.08,2.51-4.28,5.54-8.14,9.05-11.62,3.42-3.38,7.31-6.16,11.47-8.54,2.58-1.47,5.34-2.63,8.15-3.54,3.14-1.01,6.4-1.62,9.66-2.2,3.73-.66,7.51-.64,11.2-.28,3.81.37,7.62,1.06,11.35,2.13,3.62,1.04,7.17,2.24,10.57,3.81,3.16,1.46,6.23,3.13,9.21,4.97,3.12,1.93,6.07,4.09,9.03,6.23.67.48,1.03-.12,1.3-.35,1.88-1.61,3.98-2.9,6.05-4.22,4.11-2.64,8.38-4.98,12.88-6.92,2.76-1.19,5.55-2.28,8.41-3.12,3.19-.94,6.49-1.55,9.8-2.09,3.43-.56,6.83-.46,10.26-.56,2.36-.07,4.61.56,6.9.93,4.62.74,9,2.3,13.19,4.34,2.71,1.32,5.27,2.94,7.66,4.78,1.73,1.33,3.44,2.72,4.97,4.28,3.11,3.18,5.92,6.62,8.24,10.43,1.72,2.83,3.2,5.78,4.43,8.85,1.78,4.42,3.04,9.01,3.68,13.71.51,3.68.98,7.44.66,11.17-.3,3.43-.45,6.87-1.1,10.29-.96,5.09-2.4,10.01-4.26,14.82-1.51,3.89-3.33,7.63-5.32,11.3-2.03,3.73-4.21,7.35-6.61,10.85-2.5,3.64-5.05,7.26-8,10.53-1.62,1.8-3.2,3.65-4.85,5.42-1.07,1.15-1.87,2.51-3,3.64-3.36,3.37-6.81,6.64-10.33,9.83-3.03,2.75-6.16,5.38-9.27,8.05-2.82,2.42-14.04,11.65-17.46,14.21-.13-6.11-2.94-8.99.91-25.15,1.15,0,3.63-.52,6.66-2.34,2.05-2.03,3.91-4.23,5.36-6.75.83-1.43,1.01-3.02,1.28-4.59.34-1.95.91-18.76.79-19.84-1.19.91-2.32,1.74-3.41,2.63-1.8,1.47-3.57,2.98-5.35,4.46-1.06.88-2.13,1.77-3.21,2.62-.43.33-.47.76-.35,1.19.5,1.94,1.09,3.87,1.47,5.84.03.18.3.36-.03.47-.18.06-.32,0-.47-.23-1.44-2.51-3.18-4.83-5-7.06-1.66-2.03-3.55-3.88-5.54-5.59-1.96-1.68-4.05-3.22-6.31-4.47-2.44-1.35-4.92-2.59-7.55-3.57-2.8-1.04-5.7-1.61-8.56-2.34-.96-.25-2.04-.04-3.18-.04,1.06,1.51,2.25,2.88,3.16,4.45,1.11,1.92,2.17,3.87,3.14,5.86.84,1.72,1.66,3.44,2.48,5.17,1.28,2.69,2.45,5.43,3.86,8.05.93,1.72,1.91,3.46,3.31,4.88.37.38.4.57.02.98-2.56,2.77-5.16,5.5-7.52,8.45-.28.34-.72.55-1.23.94.06-1.12.63-1.86,1-2.64,1.05-2.23,2.2-4.4,3.37-6.57.55-1.03-.34-1.6-.72-2.21-1.23-1.99-2.22-4.09-3.21-6.19-.86-1.83-1.51-3.76-2.38-5.57-1.25-2.62-2.46-5.28-4.01-7.76-2.24-3.59-5.03-6.66-8.49-9.09-1.86-1.3-3.93-2.22-5.99-3.17-2.38-1.1-4.91-1.65-7.39-2.36-.58-.16-.83-.46-.85-.86-.07-1.24-.22-2.51.42-3.69.51-.93,1.1-1.06,1.86-.32.91.89,1.86,1.61,3.27,1.52.84-.06,1.46-.35,1.83-1.06.41-.78.45-1.57,0-2.43-.79-1.49-2.25-1.93-3.64-2.49-.34-.14-.4-.25-.5-.58-.42-1.43-.07-2.82.11-4.22.13-1.04.49-2,.95-2.93.09-.19.2-.4.44-.35.29.06.17.33.17.51,0,1.42.12,2.79.79,4.12,1.07,2.14,2.64,3.37,5.07,3.63,2.56.28,5.11.23,7.67.01.38-.03.75-.08,1.11.02.16.41-.23.39-.39.46-2.46,1.11-4.95,2.17-7.13,3.81-.88.66-1.61,1.43-2.29,2.29-.47.59-.24.89.3,1,1.96.4,3.83,1.15,5.76,1.61,2.11.5,4.2,1.06,6.28,1.65.39.11.37-.07.48-.26.71-1.32,1.2-2.74,1.83-4.09.69-1.47,1.21-3.02,1.97-4.44.8-1.5,1.36-3.09,2.1-4.61,1.3-2.67,2.38-5.46,3.56-8.19.16-.37.26-.49-.29-.73-2.91-1.3-5.88-2.46-8.81-3.71-2.09-.89-4.16-1.85-6.21-2.85-2.39-1.16-4.8-2.3-7.04-3.73-2.41-1.54-4.83-3.06-7.49-4.11-3.15-1.24-4.86-.57-6.97,2.5-1.88,2.73-3.76,5.46-5.63,8.19-1.47,2.15-2.98,4.28-4.44,6.45-1.21,1.82-2.53,3.57-3.69,5.42-1.66,2.64-3.91,4.87-5.35,7.65-.85,1.64-1.39,3.47-.72,5.34.38,1.08.78,2.14,1.49,3.12,2.59,3.58,5.05,7.26,7.59,10.89,1.87,2.67,3.8,5.31,5.64,7.99,1.42,2.06,2.9,4.09,4.28,6.19,2.34,3.56,4.89,6.99,7.34,10.48,1.16,1.65,2.31,3.29,3.41,4.98,2.19,2.77,2.12,2.47,1.54,6.89-.22,2.04-.56,4.06-.9,6.09-.27,1.62-.56,3.24-.84,4.86-.35,2.05-.66,4.11-1.03,6.15-.37,1.76-.73,3.48-1.06,5.21,0,0-10.17-6.77-11.87-8.03Zm35.92-62.32c1.62.05,2.94.66,4.32,1,3.36.84,6.52,2.24,9.64,3.72.46.22.62.18.91-.1.66-.65,1.4-1.25,2.03-1.91,1.41-1.49,2.9-2.91,4.36-4.36,1.82-1.81,3.65-3.6,5.47-5.41,1.43-1.43,2.82-2.89,4.27-4.3,2.01-1.96,4.1-3.9,5.48-6.34,1.74-3.08,1.93-3.5-.22-6.08-1.46-1.75-3.12-3.36-4.82-4.89-1.52-1.38-3.12-2.68-5.01-3.57-.49-.23-.88-.14-1.15.2-1.72,2.14-3.41,4.31-5.11,6.46-1.91,2.42-3.82,4.85-5.74,7.26-1.31,1.65-2.66,3.28-3.97,4.93-1.48,1.85-2.97,3.7-4.41,5.58-1.98,2.55-4.09,5-6.05,7.81Zm49.95-3.24c.12-2.4-1.05-4.19-2.12-5.91-1.28-2.08-2.84-4.01-4.65-5.67-1.48-1.36-2.92-1.52-4.17.02-.7.87-1.41,1.73-2.15,2.56-3.33,3.69-6.67,7.37-10.01,11.05-2.53,2.8-5.05,5.62-7.6,8.4-.43.46-.3.76.06,1.07,2.99,2.53,5.5,5.54,8.21,8.35.39.41.62.42.97.17.41-.29.79-.63,1.18-.95,2.41-1.97,4.83-3.93,7.24-5.9,1.79-1.46,3.52-2.99,5.35-4.39,1.81-1.39,3.51-2.91,5.18-4.45,1.3-1.18,2.83-2.39,2.51-4.35h0Zm-44.1-9.68c.66-1.14,1.76-1.84,2.53-2.82,1.33-1.71,2.72-3.39,4.09-5.08,2.06-2.54,3.92-5.25,5.85-7.9,1.29-1.77,2.54-3.57,3.4-5.59,1.12-2.65.6-5.39-1.67-7.25-1.36-1.12-2.71-2.25-4.03-3.41-1.55-1.37-3.3-2.38-5.21-3.1-1.13-.43-2.37-.42-3.53-.22-.79.14-.99,1.06-1.41,1.68-1.72,2.59-3.48,5.16-5.2,7.74-1.49,2.22-2.95,4.46-4.42,6.69-.2.3-.6.55.1.79,1.66.58,3.27,1.36,4.97,1.79,2.91.73,5.63,1.98,8.52,2.75.53.14.71.35.46,1-1.22,3.26-2.37,6.56-3.51,9.85-.37,1.02-.63,2.06-.94,3.08h0Zm-15.08-46.84c-.55.31-1.24.26-1.72.98-.75,1.15-1.36,2.36-2.04,3.54-1.8,3.12-3.67,6.19-5.49,9.3-1.01,1.72-1.89,3.52-3.01,5.16-.56.82-.4,1.18.33,1.51,1.76.79,3.39,1.81,5.2,2.52,2.52.99,4.99,2.14,7.47,3.23.67.29,1.04.09,1.45-.51,2.49-3.56,5.3-6.9,7.51-10.67.73-1.26,1.62-2.44,2.03-3.87.83-2.85.63-3.78-1.16-5.24-2.28-1.86-4.56-3.72-7.29-4.97-1.07-.48-2.15-.63-3.28-.98Z"/>
  <path class="cls-2" d="m257.57,54.86c-.73-5.43-2.17-10.74-4.2-15.85-1.4-3.55-3.09-6.96-5.05-10.23-2.65-4.41-5.85-8.38-9.4-12.06-1.75-1.8-3.7-3.41-5.67-4.95-2.73-2.13-5.65-4-8.74-5.53-4.78-2.36-9.78-4.16-15.05-5.02-2.61-.43-5.18-1.16-7.87-1.08-3.91.12-7.79,0-11.71.65-3.78.62-7.54,1.33-11.18,2.42-3.26.97-6.45,2.23-9.6,3.61-5.13,2.24-10.01,4.95-14.7,8-2.36,1.53-4.76,3.02-6.9,4.88-.31.27-.72.96-1.48.4-3.38-2.47-6.74-4.97-10.3-7.2-3.4-2.13-6.9-4.06-10.51-5.75-3.88-1.82-7.93-3.2-12.06-4.41-4.26-1.24-8.6-2.04-12.95-2.46-4.21-.42-8.52-.44-12.78.32-3.72.67-7.44,1.38-11.02,2.54-3.21,1.05-6.36,2.39-9.3,4.09-4.75,2.75-9.18,5.97-13.09,9.87-4,4.02-7.46,8.49-10.33,13.44-2.36,4.08-4.35,8.34-5.77,12.81-1.86,5.79-3.14,11.75-3.37,17.86-.17,4.65-.11,9.3.43,13.92.54,4.6,1.55,9.1,2.92,13.49,1.19,3.78,2.54,7.53,4.14,11.17,2.69,6.12,5.73,12.04,9.33,17.64,4.02,6.24,8.1,12.43,13.17,17.91,2.67,2.89,9.96,11.75,10.5,12.23,2.54,2.31,4.77,4.95,7.38,7.18,2,1.7,3.81,3.61,5.8,5.33,4.79,4.15,9.61,8.29,14.6,12.19,1.18.93,18.91,12.62,18.91,12.62l1.47-7.23s-10.29-6.85-11.88-8.03c-1.04-.78-2.09-1.54-3.12-2.34-4.38-3.37-8.6-6.95-12.8-10.54-1.74-1.49-3.33-3.14-5.08-4.61-2.29-1.93-4.24-4.21-6.47-6.21-.47-.42-6.86-8.08-9.2-10.58-4.44-4.74-8.02-10.09-11.54-15.49-3.16-4.85-5.82-9.97-8.18-15.26-1.4-3.15-2.59-6.39-3.63-9.66-1.2-3.8-2.09-7.69-2.56-11.67-.48-4-.53-8.02-.38-12.04.2-5.29,1.32-10.44,2.95-15.45,1.25-3.87,2.99-7.55,5.06-11.08,2.51-4.28,5.54-8.14,9.05-11.62,3.42-3.38,7.31-6.16,11.47-8.54,2.58-1.47,5.34-2.63,8.15-3.54,3.14-1.01,6.4-1.62,9.66-2.2,3.73-.66,7.51-.64,11.2-.28,3.81.37,7.62,1.06,11.35,2.13,3.62,1.04,7.17,2.24,10.57,3.81,3.16,1.46,6.23,3.13,9.21,4.97,3.12,1.93,6.07,4.09,9.03,6.23.67.48,1.03-.12,1.3-.35,1.88-1.61,3.98-2.9,6.05-4.22,4.11-2.64,8.38-4.98,12.88-6.92,2.76-1.19,5.55-2.28,8.41-3.12,3.19-.94,6.49-1.55,9.8-2.09,3.43-.56,6.83-.46,10.26-.56,2.36-.07,4.61.56,6.9.93,4.6.74,8.95,2.28,13.12,4.31,2.74,1.33,5.33,2.97,7.75,4.83,1.72,1.33,3.43,2.71,4.95,4.27,3.11,3.18,5.92,6.62,8.24,10.43,1.72,2.83,3.2,5.78,4.43,8.85,1.78,4.42,3.04,9.01,3.68,13.71.51,3.68.98,7.44.66,11.17-.3,3.43-.45,6.87-1.1,10.29-.96,5.09-2.4,10.01-4.26,14.82-1.51,3.89-3.33,7.63-5.32,11.3-2.03,3.73-4.21,7.35-6.61,10.85-2.5,3.64-5.05,7.26-8,10.53-1.62,1.8-3.2,3.65-4.85,5.42-1.07,1.15-1.87,2.51-3,3.64-3.36,3.37-6.81,6.64-10.33,9.83-3.03,2.75-6.16,5.38-9.27,8.05-2.74,2.35-15.9,13.1-17.45,14.21-.07.05.38,7.59.38,7.59l19.73-15.11s10.87-8.73,14.32-11.91c4.02-3.69,7.95-7.47,11.79-11.37,1.29-1.31,2.2-2.88,3.42-4.21,1.88-2.05,3.69-4.19,5.53-6.27,3.37-3.78,6.28-7.97,9.13-12.18,2.74-4.05,5.23-8.23,7.54-12.55,2.27-4.24,4.35-8.57,6.07-13.07,2.12-5.56,3.77-11.25,4.86-17.14.74-3.95.91-7.93,1.26-11.9.37-4.31-.17-8.66-.75-12.92Z"/>
  <g>
    <path class="cls-2" d="m62.53,224.69c2.29-.09,4.59-.14,6.86-.42,9.18-1.1,17.93-4.78,26.98-6.55,2.57-.5,5.15-1.3,7.78-1.43,2.47-.13,4.97.06,7.44.17,4.68.22,9.65,1.51,13.88,3.66,8.41,4.29,15.38,9.83,21.78,16.78.63.68,1.5,2.03,2.42,2.3.78.23,7.12.4,7.92-1.51.39-.92.36-1.58.98-2.51.55-.82,1.11-1.59,1.78-2.3,1.57-1.68,3.35-3.26,5.13-4.71,7.07-5.77,16.15-10.01,25.23-11.15,9.74-1.22,19.93.2,29.62,1.39,5.15.63,10.28,1.39,15.42,2.01,2.4.29,4.79.91,7.14,1.43,2.04.45,4.66,1.66,6.75,1.58,2.39-.09.99-4.08.99-4.08,0,0-1.32-5.09-1.77-6.97-1.1-4.6-6.24-3.52-9.82-4.07-9.48-1.46-18.67-4.65-28.16-6.12-8.74-1.36-18.33-1.26-26.51,2.51-4.12,1.9-8.19,4.18-11.6,7.2-1.87,1.65-3.81,3.27-5.49,5.12-1.21,1.34-2.33,3.54-4.15,3.9-.03-.35,0-.68.1-1.01,0-.02,0-.03.01-.05.28-.99.98-1.93,1.45-2.84.72-1.41,1.42-2.81,2.3-4.13,1.68-2.53,3.77-4.89,5.93-7.02,4.56-4.48,9.75-7.85,15.45-10.67,11.67-5.79,24.85-7.95,37.78-7.95,2.99,0,8.32.18,7.45-4.48-.89-4.76-6.89-3.26-10.33-3.13-5.07.19-10.1.42-15.11,1.26-9.4,1.59-18.93,4.55-27.16,9.43-7.63,4.52-14.92,10.32-19.91,17.75-2.63,3.92-4.68,8.08-6.66,12.36-1.04,2.26-1.88,4.55-2.31,7-.65,3.69-.36,5.86-1.58,5.91-.87.04-2.19-2.11-2.63-2.8-1.27-1.96-2.48-3.95-3.82-5.86-2.73-3.89-5.64-7.38-9.2-10.54-6.68-5.94-14.87-11.42-24.01-12.33-4.85-.48-10.31-.36-15.14.29-4.75.65-9.1,2.09-13.67,3.4-4.52,1.3-9.48,2.82-14.19,3.12-3.48.23-9.79-.94-11.27,3.32-.74,2.12-2.14,11.28-1,12.42,1.21,1.21,5.31.36,6.89.3Z"/>
    <path class="cls-2" d="m269.71,239.89c-2.18-2.58-6.38-1.79-9.32-1.77-4.22.02-8.44.04-12.65.05-8.5.03-17,.08-25.5.24-4.22.07-8.39-.24-12.62-.14-4.1.09-8.12.03-12.2-.12-4.25-.16-16.16.4-18.02.63-1.81.22-3.57.14-5.35.61-3.57.94-7.51,2.26-10.79,3.96-1.57.81-3.07,2.06-4.85,2.39-1.77.33-9.61.29-11.49-.03-1.81-.31-3.47-1.43-5.07-2.25-3.27-1.69-6.51-3.3-10.17-3.9-3.61-.58-14.95-1.35-16.78-1.4-2.07-.05-14.37.04-18.47,0-4.35-.06-20.71-.1-24.58.05-3.95.15-7.78-.05-11.7-.06-4.32-.01-8.64-.01-12.96-.01-3.34,0-8.14-1.01-10.97,1.15-2.32,1.77-2.02,5.08.61,6.49,1.52.82,3.65.44,5.31.44,2.17,0,4.34,0,6.51,0,17.34,0,34.69.05,52.03-.02,8.61-.03,17.18.14,25.79.6,3.72.2,7.52,1.5,10.96,2.93,3.35,1.39,5.67,3.79,9.45,4.12,1.89.17,9.32.25,11.15.11,3.65-.28,5.77-2.5,8.94-3.88,3.44-1.49,7.21-2.33,10.85-3.15,4-.89,7.92-.66,11.98-.66,17.25,0,34.49,0,51.74,0,0-.1,24.3.09,26.16-.43,2.49-.7,3.73-3.89,2.01-5.92Z"/>
    <path class="cls-2" d="m237.07,227.87c-1.82-.37-3.67-.64-5.51-.91-2.17-.42-4.35-.79-6.54-1.12-.12-.03-.25-.05-.37-.08-3.75-.86-7.72-.95-11.54-1.45-3.96-.51-8.06-.83-12.06-.83-8.17-.01-16.63,1.21-23.8,5.37-1.37.8-4.09,1.91-5.04,3.18-1.13,1.51,1.98.62,2.8.48,2.01-.33,3.93-.91,5.98-.96,2.2-.05,4.4-.03,6.6-.03,8.96-.03,17.91,0,26.87,0,6.29,0,12.57,0,18.86,0,3.14,0,6.29,0,9.43,0,1.8,0,6.23.83,7.43-.79-1.61-1.09-4.78-1.07-6.66-1.42-2.16-.4-4.28-.99-6.44-1.42Z"/>
    <path class="cls-2" d="m119.03,225.26c-4.37-1.82-8.58-2.11-13.26-2.1-4.71,0-9.17,1.4-13.61,2.83-4.32,1.39-19.19,4.38-19.19,5.21-.29.38,4.83.32,6.29.32,2.47,0,4.94,0,7.41,0,5.1,0,10.19,0,15.29,0,5.25,0,10.5,0,15.75,0,2.43,0,13.23.07,13.48-.25-.77-1.74-9.96-5.1-12.15-6.01Z"/>
  </g>
</svg>