<?xml version="1.0" encoding="UTF-8"?>
<svg id="Layer_1" data-name="Layer 1" xmlns="http://www.w3.org/2000/svg" viewBox="0 0 264.24 292.64">
  <defs>
    <style>
      .cls-1 {
        fill: #fff;
        stroke-width: 0px;
      }
    </style>
  </defs>
  <path class="cls-1" d="m261.19,178.29c-4.25-4.63-10.94-4.8-16.3-.33-16.39,13.69-32.72,27.45-49.17,41.07-2.45,2.02-4.45,3.85-3.35,7.34.15.47,0,1.04-.03,1.56-.83,11.17-9.96,19.66-21.39,19.69-21.96.06-43.91.02-65.87.02-.67,0-1.35,0-2.01-.13-2.41-.46-4.18-2.59-4.12-4.89.06-2.38,1.81-4.35,4.28-4.73.73-.11,1.49-.09,2.23-.09,21.73,0,43.46,0,65.2-.02,6.78,0,11.93-4.84,11.91-11.07-.02-6.36-5-10.97-11.89-10.98-10.01-.01-20.01-.01-30.02,0-9.16.01-17.12-2.93-23.67-9.45-5.36-5.33-11.9-7.82-19.4-7.85-9.18-.03-18.37.05-27.56-.03-10.57-.09-19.49,3.59-26.93,11.13-10.33,10.47-20.78,20.82-31.18,31.23-2.75,2.75-2.74,3.48.06,6.16,14.82,14.21,29.65,28.41,44.48,42.62,4.28,4.11,4.4,4.22,8.43-.08,4.92-5.24,10.79-7.55,17.99-7.43,13.22.22,26.44.06,39.65.06,14.04,0,28.08,0,42.12,0,5.65,0,10.48-1.98,14.48-6.01,3.89-3.92,7.82-7.81,11.73-11.72,23.18-23.17,46.38-46.34,69.54-69.53,4.83-4.83,5.12-11.84.8-16.54Z"/>
  <path class="cls-1" d="m52.22,118.42c-.01,5.97-.05,11.95,0,17.92.17,18.18,4.93,35.07,14.24,50.69.71,1.18,1.47,1.6,2.84,1.6,9.56-.05,19.12-.07,28.67,0,9.82.07,18.46,3.28,25.5,10.25,4.83,4.79,10.58,7.04,17.35,6.99,10.01-.06,20.01-.03,30.02,0,1.49,0,2.99.1,4.45.35,4.82.81,8.75,3.28,12.1,6.89.63-.48,1.17-.85,1.68-1.28,14.66-12.26,29.3-24.54,43.99-36.77,4.05-3.38,7.77-7.25,12.93-9.09.54-.19,1.06-1.04,1.21-1.68,1.11-4.72,2.72-9.42,3.05-14.2.73-10.56.82-21.16,1.11-31.75.08-2.86-.65-3.51-3.61-3.51-64,0-127.99,0-191.98,0-2.88,0-3.56.7-3.57,3.59Zm59.6,24.7c3.53-17.05,23.61-24.14,37.02-13.08.57.47,1.13.93,1.7,1.39,1.48-1.11,2.78-2.26,4.23-3.14,8.19-4.94,16.54-5.08,24.51.18,8.32,5.49,11.64,13.6,10.36,23.42-1.16,8.86-5.86,16.03-11.57,22.6-7.02,8.06-15.27,14.67-24.28,20.38-1.85,1.17-3.77,1.61-5.68.39-12.85-8.17-24.53-17.6-32.26-31.06-3.74-6.52-5.6-13.5-4.03-21.08Z"/>
  <path class="cls-1" d="m112.24,56.46c9.81,3.01,18.81,7.59,26.85,13.96,10.33,8.18,18.17,18.08,21.2,31.23.71,3.06,1.06,3.38,4.23,3.38,12.09,0,24.19,0,36.28,0s24.63,0,36.95,0c3.14,0,4.04-1.1,3.5-4.15-2.52-14.12-16.07-23.05-30.01-19.78-5.26,1.24-7.96-1.33-6.97-6.6,1.6-8.49-2.01-16.6-9.28-20.88-7.24-4.26-16.15-3.47-22.78,2.03-4.35,3.61-7.1,2.95-9.52-2.13-5.07-10.62-13.56-16.64-25.26-17.26-11.89-.62-21.03,4.62-27.23,14.82-1.87,3.08-1.35,4.36,2.04,5.4Z"/>
  <path class="cls-1" d="m63.76,101.05c.59,3.63.99,3.98,4.6,3.98,12.91,0,25.83,0,38.74,0,13.06,0,26.13,0,39.19,0,3.71,0,4.59-1.19,3.49-4.67-.18-.57-.4-1.12-.62-1.68-3.95-10.05-11.15-17.4-19.93-23.26-12.54-8.38-26.16-13.36-41.53-11.98-13.17,1.18-21.52,8.83-24,21.8-1.01,5.27-.8,10.55.06,15.82Z"/>
  <path class="cls-1" d="m19.36,59.17c4.41-2.53,7.59-6.26,9.6-10.9,2.23-5.16,5.89-5.99,9.82-2.06,6.13,6.12,12.25,12.24,18.36,18.38,4,4.02,4.31,5.06,8.9.14,2.42-2.6,2.56-3.33.02-5.87-6.81-6.81-13.64-13.61-20.42-20.45-3.2-3.23-2.4-7.17,1.68-9.01,4.94-2.22,8.9-5.72,12.34-9.81,2.18-2.6,2.39-5.59.87-8.6-2.05-4.03-5.05-7.23-9.11-9.27-6.88-3.45-13.76-1.63-18.06,4.77-3.48,5.17-4.81,10.85-3.81,17.05.65,4.06-2.2,6.78-6.28,6.14-1.25-.2-2.51-.3-3.39-.4-5.71.17-10.52,1.79-14.72,5.06C1.49,37.2-.36,41.01.06,45.68c.52,5.72,3.39,10.13,8.25,13.17,3.58,2.24,7.35,2.46,11.05.33Z"/>
  <path class="cls-1" d="m149.63,184.55c.5.34,1.73.16,2.31-.23,7.99-5.46,15.35-11.65,21.26-19.38,3.72-4.86,6.69-10.09,6.87-15.39.08-7.53-3.97-13.06-9.93-14.62-5.89-1.54-11.62,1.07-14.84,6.85-1.06,1.9-2.43,3.23-4.71,3.24-2.29,0-3.65-1.35-4.69-3.25-3.18-5.76-9-8.41-14.84-6.83-6.1,1.65-10.15,7.26-9.94,13.78.15,4.62,1.88,8.74,4.33,12.55,6.22,9.66,14.82,16.89,24.19,23.28Z"/>
</svg>