<?xml version="1.0" encoding="utf-8"?>
<!-- Generator: Adobe Illustrator 27.8.1, SVG Export Plug-In . SVG Version: 6.00 Build 0)  -->
<svg version="1.1" id="Layer_1" xmlns="http://www.w3.org/2000/svg" xmlns:xlink="http://www.w3.org/1999/xlink" x="0px" y="0px"
	 viewBox="0 0 400 400" style="enable-background:new 0 0 400 400;" xml:space="preserve">
<g>
	<path d="M392.75,234.06c-1.52,7.17-2.54,14.49-4.67,21.47c-5.99,19.67-17.53,35.63-33.69,48.29c-3.44,2.69-6.93,5.31-10.33,8.05
		c-12.3,9.94-18.57,22.84-18.68,38.67c-0.06,9.6,0.01,19.21-0.02,28.81c-0.02,8.2-4.51,12.64-12.78,12.65
		c-28.94,0.01-57.88,0.02-86.82,0c-8.22,0-12.66-4.49-12.67-12.76c-0.01-32.56-0.19-65.11,0.05-97.67
		c0.2-27.21,12.1-48.17,35.34-62.36c12.54-7.66,25.35-14.9,38.19-22.07c17.74-9.91,38.97-4.91,49.9,11.51
		c6.9,10.37,4.29,21.92-6.45,28.19c-11.3,6.59-22.68,13.05-33.98,19.64c-5.25,3.06-7.35,8.45-5.54,13.67
		c2.16,6.2,9.43,9.62,15.26,6.38c13.61-7.56,27.47-14.85,40.27-23.64c17.68-12.13,21.74-36.24,10.45-54.67
		c-4.56-7.45-10.55-13.52-17.68-18.56c-1.09-0.77-2.19-2.45-2.2-3.71c-0.13-18.34-0.33-36.68,0.02-55.01
		c0.36-19.1,16.43-35.04,35.45-35.79c9.82-0.39,16.69,4.34,19.87,13.66c0.15,0.45,0.46,0.84,0.7,1.25
		C392.75,144.73,392.75,189.4,392.75,234.06z"/>
	<path d="M206.36,8.75c2.23,0.67,4.49,1.26,6.7,2.02c18.56,6.36,29.13,25.65,24.35,44.38c-4.75,18.61-22.95,31.04-41.13,28.11
		c-20.27-3.27-33.94-20.09-32.49-39.97c1.19-16.4,13.25-30.11,29.69-33.76c0.82-0.18,1.6-0.52,2.4-0.78
		C199.38,8.75,202.87,8.75,206.36,8.75z"/>
	<path d="M189.15,328.37c0,16.97,0.01,33.93-0.01,50.9c-0.01,8.25-4.47,12.72-12.71,12.72c-28.94,0.02-57.89,0.02-86.83,0
		c-8.25,0-12.71-4.47-12.73-12.7c-0.02-9.61,0.06-19.21-0.02-28.82c-0.14-15.97-6.42-29.07-19.04-38.85
		c-11.96-9.27-23.72-18.64-32.1-31.57c-10.22-15.78-15.98-33.01-16.1-51.77c-0.26-41.42-0.15-82.84-0.08-124.25
		c0.02-12.1,9.81-20.18,22.37-18.78c19.27,2.15,33.52,17.73,33.7,37.17c0.16,17.71-0.01,35.43,0.1,53.14
		c0.01,2.2-0.89,3.27-2.54,4.44c-11.77,8.35-20.83,18.77-23.09,33.52c-2.57,16.83,3.19,30.82,17.25,40.24
		c12.29,8.24,25.47,15.18,38.38,22.46c5.58,3.15,12.18,1.01,15.18-4.37c2.97-5.33,1.2-11.87-4.43-15.2
		c-10.84-6.4-21.78-12.61-32.69-18.9c-13.59-7.83-15.79-19.86-5.85-32.11c10.72-13.22,29.98-17.81,44.98-9.8
		c15.16,8.09,30.29,16.4,44.62,25.85c20.54,13.55,30.94,33.42,31.56,58.02c0.41,16.21,0.08,32.43,0.08,48.65
		C189.14,328.37,189.14,328.37,189.15,328.37z"/>
	<path d="M242.68,89.49c18.13,13.81,28.06,31.85,29.47,54.49c0.21,3.36,0.12,6.73,0.08,10.1c-0.1,7.06-4.71,11.83-11.69,11.84
		c-39.66,0.04-79.32,0.04-118.99,0c-6.17-0.01-11.07-4.27-11.44-10.14c-1.49-23.81,5.35-44.54,23.17-61.05
		c1.99-1.85,4.19-3.47,6.26-5.16C184.93,112.49,219.9,110.48,242.68,89.49z"/>
</g>
</svg>
