<?xml version="1.0" encoding="UTF-8"?>
<svg id="Layer_1" data-name="Layer 1" xmlns="http://www.w3.org/2000/svg" viewBox="0 0 400 400">
  <defs>
    <style>
      .cls-1 {
        fill: #fff;
        stroke-width: 0px;
      }
    </style>
  </defs>
  <path class="cls-1" d="m164.73,121.26c2.35,1.06,4.53,2.42,6.95,3.37,3.37,1.32,6.67,2.86,9.98,4.32.9.39,1.39.12,1.94-.68,3.33-4.76,7.08-9.22,10.04-14.26.98-1.68,2.16-3.26,2.71-5.17,1.11-3.81.84-5.05-1.55-7-3.05-2.49-6.09-4.97-9.74-6.64-1.43-.64-2.87-.84-4.38-1.31-.73.41-1.66.35-2.3,1.31-1,1.54-1.82,3.15-2.73,4.73-2.41,4.17-4.9,8.27-7.34,12.43-1.35,2.3-2.53,4.7-4.02,6.9-.75,1.1-.53,1.58.44,2.02Z"/>
  <path class="cls-1" d="m188,130.74c-.27.4-.8.73.13,1.06,2.22.78,4.37,1.82,6.64,2.39,3.89.98,7.52,2.65,11.39,3.67.71.19.95.47.61,1.34-1.63,4.36-3.17,8.77-4.69,13.16-.49,1.36-.84,2.75-1.26,4.12.88-1.52,2.35-2.46,3.38-3.77,1.78-2.29,3.63-4.53,5.47-6.79,2.75-3.39,5.24-7.02,7.82-10.56,1.72-2.37,3.39-4.77,4.54-7.47,1.5-3.54.8-7.2-2.23-9.69-1.82-1.5-3.62-3.01-5.39-4.56-2.07-1.83-4.41-3.18-6.96-4.14-1.51-.57-3.17-.56-4.72-.29-1.06.19-1.32,1.42-1.88,2.24-2.3,3.46-4.65,6.9-6.95,10.34-1.99,2.97-3.94,5.96-5.91,8.94Z"/>
  <path class="cls-1" d="m228.89,172.15c-3.38,3.74-6.75,7.51-10.16,11.23-.57.61-.4,1.02.08,1.43,4,3.38,7.35,7.4,10.97,11.16.52.55.83.56,1.3.23.55-.39,1.06-.84,1.58-1.27,3.22-2.63,6.45-5.25,9.67-7.88,2.39-1.95,4.7-4,7.15-5.87,2.42-1.86,4.69-3.89,6.92-5.95,1.74-1.58,3.78-3.19,3.35-5.81h0c.16-3.21-1.4-5.6-2.83-7.9-1.71-2.78-3.8-5.36-6.21-7.58-1.98-1.82-3.9-2.03-5.57.03-.94,1.16-1.88,2.31-2.87,3.42-4.45,4.93-8.91,9.85-13.38,14.77Z"/>
  <path class="cls-1" d="m212.29,149.26c-1.75,2.2-3.55,4.38-5.31,6.59-1.98,2.47-3.97,4.94-5.89,7.46-2.65,3.41-5.47,6.68-8.08,10.44,2.16.07,3.93.88,5.77,1.34,4.49,1.12,8.71,2.99,12.88,4.97.61.29.83.24,1.22-.13.88-.87,1.87-1.67,2.71-2.55,1.88-1.99,3.88-3.89,5.83-5.83,2.43-2.42,4.88-4.81,7.31-7.23,1.91-1.91,3.77-3.86,5.71-5.75,2.69-2.62,5.48-5.21,7.32-8.47,2.33-4.12,2.58-4.68-.29-8.12-1.95-2.34-4.17-4.49-6.44-6.53-2.03-1.84-4.17-3.58-6.69-4.77-.65-.31-1.18-.19-1.54.27-2.3,2.86-4.56,5.76-6.83,8.63-2.55,3.23-5.1,6.48-7.67,9.7Z"/>
  <path class="cls-1" d="m0,0v400h400V0H0Zm42.4,112.11c.3-8.17,2.01-16.13,4.5-23.87,1.91-5.98,4.56-11.67,7.72-17.12,3.83-6.61,8.45-12.58,13.8-17.95,5.21-5.22,11.15-9.52,17.49-13.2,3.93-2.27,8.14-4.06,12.43-5.47,4.79-1.56,9.76-2.5,14.73-3.4,5.69-1.02,11.45-.99,17.08-.43,5.81.57,11.62,1.64,17.31,3.29,5.52,1.61,10.93,3.46,16.12,5.89,4.82,2.26,9.5,4.84,14.04,7.68,4.76,2.98,9.26,6.32,13.77,9.63,1.02.74,1.57-.19,1.98-.54,2.87-2.49,6.07-4.48,9.22-6.52,6.27-4.08,12.78-7.69,19.64-10.69,4.21-1.84,8.46-3.52,12.82-4.82,4.86-1.45,9.9-2.4,14.94-3.23,5.23-.87,10.41-.71,15.64-.87,3.6-.11,7.03.87,10.52,1.44,7.04,1.14,13.72,3.55,20.11,6.71,4.13,2.04,8.04,4.54,11.68,7.39,2.64,2.06,5.24,4.2,7.58,6.61,4.74,4.91,9.03,10.23,12.56,16.12,2.62,4.37,4.88,8.93,6.75,13.67,2.71,6.83,4.64,13.92,5.61,21.18.78,5.69,1.49,11.5,1.01,17.26-.46,5.3-.69,10.62-1.68,15.9-1.46,7.86-3.66,15.47-6.5,22.9-2.3,6.01-5.08,11.79-8.11,17.46-3.1,5.76-6.42,11.36-10.08,16.76-3.81,5.62-7.7,11.22-12.2,16.27-2.47,2.78-4.88,5.64-7.39,8.37-1.63,1.78-2.85,3.88-4.57,5.62-5.12,5.21-10.38,10.26-15.75,15.19-4.62,4.25-19.14,15.91-19.14,15.91l-26.36,20.19s-.6-10.08-.51-10.14c-.17-8.16-3.93-12.02,1.22-33.61,1.54,0,4.85-.7,8.9-3.13,2.74-2.71,5.23-5.65,7.16-9.02,1.11-1.91,1.35-4.04,1.71-6.13.45-2.61,1.22-25.07,1.06-26.51-1.59,1.22-3.1,2.33-4.56,3.51-2.41,1.96-4.77,3.98-7.15,5.96-1.42,1.18-2.85,2.37-4.29,3.5-.57.44-.63,1.02-.47,1.59.67,2.59,1.46,5.17,1.96,7.8.04.24.4.48-.04.63-.24.08-.43,0-.63-.31-1.92-3.35-4.25-6.45-6.68-9.43-2.22-2.71-4.74-5.18-7.4-7.47-2.62-2.25-5.41-4.3-8.43-5.97-3.26-1.8-6.57-3.46-10.09-4.77-3.74-1.39-7.62-2.15-11.44-3.13-1.28-.33-2.73-.05-4.25-.05,1.42,2.02,3.01,3.85,4.22,5.95,1.48,2.57,2.9,5.17,4.2,7.83,1.12,2.3,2.22,4.6,3.31,6.91,1.71,3.59,3.27,7.26,5.16,10.76,1.24,2.3,2.55,4.62,4.42,6.52.49.51.53.76.03,1.31-3.42,3.7-6.9,7.35-10.05,11.29-.37.45-.96.73-1.64,1.26.08-1.5.84-2.49,1.34-3.53,1.4-2.98,2.94-5.88,4.5-8.78.73-1.38-.45-2.14-.96-2.95-1.64-2.66-2.97-5.47-4.29-8.27-1.15-2.45-2.02-5.02-3.18-7.44-1.67-3.5-3.29-7.06-5.36-10.37-2.99-4.8-6.72-8.9-11.35-12.15-2.49-1.74-5.25-2.97-8-4.24-3.18-1.47-6.56-2.2-9.88-3.15-.78-.21-1.11-.61-1.14-1.15-.09-1.66-.29-3.35.56-4.93.68-1.24,1.47-1.42,2.49-.43,1.22,1.19,2.49,2.15,4.37,2.03,1.12-.08,1.95-.47,2.45-1.42.55-1.04.6-2.1,0-3.25-1.06-1.99-3.01-2.58-4.86-3.33-.45-.19-.53-.33-.67-.78-.56-1.91-.09-3.77.15-5.64.17-1.39.65-2.67,1.27-3.92.12-.25.27-.53.59-.47.39.08.23.44.23.68,0,1.9.16,3.73,1.06,5.51,1.43,2.86,3.53,4.5,6.78,4.85,3.42.37,6.83.31,10.25.01.51-.04,1-.11,1.48.03.21.55-.31.52-.52.61-3.29,1.48-6.61,2.9-9.53,5.09-1.18.88-2.15,1.91-3.06,3.06-.63.79-.32,1.19.4,1.34,2.62.53,5.12,1.54,7.7,2.15,2.82.67,5.61,1.42,8.39,2.2.52.15.49-.09.64-.35.95-1.76,1.6-3.66,2.45-5.47.92-1.96,1.62-4.04,2.63-5.93,1.07-2,1.82-4.13,2.81-6.16,1.74-3.57,3.18-7.3,4.76-10.94.21-.49.35-.65-.39-.98-3.89-1.74-7.86-3.29-11.77-4.96-2.79-1.19-5.56-2.47-8.3-3.81-3.19-1.55-6.41-3.07-9.41-4.98-3.22-2.06-6.45-4.09-10.01-5.49-4.21-1.66-6.49-.76-9.31,3.34-2.51,3.65-5.02,7.3-7.52,10.94-1.96,2.87-3.98,5.72-5.93,8.62-1.62,2.43-3.38,4.77-4.93,7.24-2.22,3.53-5.23,6.51-7.15,10.22-1.14,2.19-1.86,4.64-.96,7.14.51,1.44,1.04,2.86,1.99,4.17,3.46,4.78,6.75,9.7,10.14,14.55,2.5,3.57,5.08,7.1,7.54,10.68,1.9,2.75,3.88,5.47,5.72,8.27,3.13,4.76,6.53,9.34,9.81,14,1.55,2.2,3.09,4.4,4.56,6.65,2.93,3.71,2.84,3.3,2.06,9.21-.29,2.73-.75,5.43-1.2,8.14-.36,2.16-.75,4.33-1.12,6.49-.47,2.74-.88,5.49-1.38,8.22-.49,2.35-.98,4.65-1.42,6.96l-1.97,9.66s-23.69-15.63-25.26-16.87c-6.68-5.21-13.11-10.74-19.52-16.29-2.65-2.3-5.08-4.85-7.75-7.12-3.49-2.98-6.46-6.51-9.86-9.6-.72-.65-10.46-12.48-14.03-16.35-6.77-7.32-12.23-15.59-17.6-23.93-4.82-7.49-8.87-15.41-12.47-23.58-2.13-4.87-3.95-9.87-5.53-14.93-1.83-5.87-3.19-11.88-3.9-18.03-.73-6.18-.81-12.39-.58-18.6Zm287.45,216.76c-2.78.11-6.28-1.5-9.01-2.11-3.15-.7-6.34-1.52-9.54-1.91-6.87-.84-13.73-1.85-20.61-2.69-12.94-1.59-26.56-3.48-39.58-1.85-12.13,1.52-24.27,7.19-33.72,14.9-2.38,1.94-4.75,4.05-6.86,6.3-.9.96-1.66,1.98-2.38,3.08-.82,1.24-.79,2.13-1.31,3.35-1.08,2.55-9.54,2.33-10.59,2.02-1.23-.36-2.39-2.17-3.23-3.08-8.56-9.29-17.87-16.69-29.11-22.43-5.64-2.88-12.29-4.6-18.54-4.89-3.29-.16-6.64-.4-9.94-.23-3.51.18-6.95,1.24-10.39,1.91-12.1,2.37-23.79,7.29-36.06,8.76-3.04.36-6.11.44-9.17.56-2.11.08-7.59,1.21-9.21-.41-1.52-1.52.35-13.76,1.34-16.6,1.99-5.69,10.41-4.14,15.06-4.44,6.29-.41,12.92-2.43,18.96-4.17,6.11-1.76,11.91-3.68,18.26-4.55,6.45-.88,13.75-1.04,20.23-.39,12.21,1.22,23.15,8.54,32.08,16.47,4.76,4.22,8.65,8.88,12.29,14.08,1.79,2.55,3.41,5.21,5.1,7.83.6.92,2.35,3.79,3.52,3.74,1.63-.07,1.25-2.96,2.11-7.9.58-3.26,1.7-6.33,3.09-9.35,2.64-5.71,5.38-11.27,8.9-16.51,6.66-9.93,16.41-17.68,26.6-23.72,11-6.52,23.74-10.47,36.29-12.6,6.69-1.13,13.42-1.44,20.19-1.69,4.61-.17,12.62-2.18,13.81,4.18,1.16,6.22-5.95,5.98-9.95,5.98-17.28,0-34.9,2.88-50.49,10.62-7.62,3.78-14.56,8.27-20.65,14.26-2.89,2.84-5.68,5.99-7.92,9.38-1.17,1.76-2.11,3.64-3.07,5.52-.63,1.22-1.56,2.46-1.93,3.79,0,.02-.01.04-.02.06-.12.44-.17.89-.13,1.35,2.42-.48,3.92-3.41,5.54-5.21,2.24-2.48,4.83-4.63,7.33-6.85,4.55-4.03,10-7.08,15.5-9.62,10.94-5.04,23.76-5.17,35.43-3.36,12.68,1.97,24.96,6.24,37.63,8.18,4.78.73,11.66-.71,13.12,5.44.6,2.51,2.36,9.32,2.36,9.32,0,0,1.87,5.33-1.32,5.45Zm.71,9.72c-1.6,2.17-7.51,1.06-9.92,1.06-4.2,0-8.4,0-12.6,0-8.4,0-16.8,0-25.2,0-11.97,0-23.94-.03-35.91,0-2.94,0-5.88-.03-8.82.04-2.74.07-5.31.85-8,1.28-1.09.18-5.25,1.37-3.74-.65,1.27-1.7,4.9-3.19,6.74-4.25,9.59-5.56,20.89-7.2,31.81-7.18,5.34,0,10.82.43,16.12,1.11,5.1.66,10.41.79,15.42,1.93.17.04.33.07.5.11,2.92.44,5.83.94,8.73,1.49,2.46.36,4.93.73,7.37,1.22,2.88.58,5.71,1.37,8.6,1.9,2.52.47,6.75.45,8.9,1.9Zm-159.01.75c-.33.43-14.77.34-18.01.33-7.02,0-14.03-.01-21.05-.01-6.81,0-13.62,0-20.43,0-3.3,0-6.6,0-9.9,0-1.95,0-8.8.08-8.4-.43,0-1.11,19.87-5.11,25.65-6.96,5.93-1.91,11.89-3.77,18.19-3.78,6.25,0,11.88.38,17.72,2.81,2.92,1.22,15.2,5.7,16.24,8.03Zm182.42,19.43c-2.48.7-34.95.44-34.95.58-23.05,0-46.09,0-69.14,0-5.43,0-10.67-.31-16.01.88-4.88,1.09-9.91,2.21-14.51,4.21-4.24,1.84-7.07,4.81-11.95,5.18-2.44.19-12.37.08-14.89-.14-5.06-.45-8.16-3.65-12.63-5.51-4.6-1.91-9.68-3.65-14.65-3.91-11.49-.61-22.95-.84-34.46-.8-23.18.09-46.35.03-69.53.03-2.9,0-5.8,0-8.7,0-2.23,0-5.08.5-7.1-.59-3.51-1.89-3.91-6.31-.82-8.68,3.77-2.88,10.19-1.54,14.66-1.54,5.77,0,11.55,0,17.32.02,5.24.01,10.36.27,15.63.08,5.18-.19,27.04-.14,32.85-.06,5.47.07,21.91-.06,24.68.01,2.45.06,17.61,1.09,22.43,1.87,4.89.79,9.22,2.96,13.59,5.21,2.14,1.1,4.35,2.59,6.77,3.01,2.5.43,12.99.48,15.35.04,2.38-.44,4.38-2.1,6.48-3.19,4.39-2.27,9.65-4.03,14.42-5.29,2.38-.63,4.74-.52,7.16-.81,2.49-.31,18.41-1.06,24.09-.84,5.45.21,10.82.29,16.31.17,5.66-.13,11.23.29,16.87.19,11.36-.2,22.71-.27,34.08-.31,5.64-.02,11.27-.04,16.91-.07,3.93-.02,9.54-1.08,12.45,2.37,2.3,2.71.64,6.98-2.69,7.92Z"/>
  <path class="cls-1" d="m229.15,265.3c.19-.13.51-.38.94-.71-.35.27-.66.51-.94.71Z"/>
</svg>