<?xml version="1.0" encoding="UTF-8"?>
<svg id="Layer_1" data-name="Layer 1" xmlns="http://www.w3.org/2000/svg" viewBox="0 0 310.91 291.44">
  <defs>
    <style>
      .cls-1 {
        fill: #fff;
        stroke-width: 0px;
      }
    </style>
  </defs>
  <path class="cls-1" d="m0,265.41c0-60.38,0-120.77,0-181.15.24-1.2.44-2.41.72-3.6,2.94-12.82,14.98-22.42,28.13-22.42,13.63,0,27.25,0,40.88,0,2.63,0,5.25,0,8,0,0-.59,0-.97,0-1.35,0-9.24,0-18.47,0-27.71,0-16.19,12.9-29.16,29.08-29.17,32.44-.02,64.87-.03,97.31.04,2.55,0,5.18.33,7.64.99,12.66,3.39,21.4,14.88,21.44,27.96.02,8.84,0,17.68-.01,26.52,0,.88,0,1.75,0,2.7.87,0,1.49,0,2.1,0,15.82,0,31.65-.28,47.47.11,11.49.28,20.04,6.04,25.15,16.39,1.41,2.86,2.03,6.12,3.01,9.2v181.82c-.13.47-.3.94-.4,1.42-1.93,10-7.47,17.29-16.69,21.58-2.7,1.26-5.72,1.81-8.6,2.68H26.02c-.26-.09-.51-.22-.77-.26-10.41-1.63-18-7.17-22.48-16.67C1.44,271.67.9,268.45,0,265.41Zm174.95-71.08c.87,0,1.53,0,2.2,0,10.19,0,20.39,0,30.58,0,4.16,0,6.08-1.93,6.08-6.1,0-8.96.01-17.91,0-26.87,0-4.06-1.84-5.89-5.85-5.9-10.31,0-20.61,0-30.92,0h-2.09v-2.27c0-10.03-.06-20.05.03-30.08.03-4.04-1.44-6.69-6.61-6.58-8.84.2-17.68.05-26.52.06-4.07,0-5.75,1.67-5.76,5.72,0,10.03,0,20.05,0,30.08q0,3.07-2.99,3.07c-10.08,0-20.16,0-30.24,0-3.93,0-5.63,1.71-5.63,5.66,0,9.07,0,18.14,0,27.2,0,4.23,1.79,6,6.07,6,10.19,0,20.39,0,30.58,0h2.22c0,.83,0,1.49,0,2.15,0,10.19,0,20.39,0,30.58,0,4.41,1.71,6.13,6.12,6.13,8.84,0,17.68,0,26.53,0,4.37,0,6.22-1.88,6.22-6.3,0-9.46,0-18.92,0-28.39v-4.17Zm39.19-136.17v-27.31c0-5.35-4.38-9.73-9.73-9.73h-95.26c-5.29,0-9.62,4.33-9.62,9.62v27.42h114.61Z"/>
</svg>