<?xml version="1.0" encoding="UTF-8"?>
<svg id="Layer_1" data-name="Layer 1" xmlns="http://www.w3.org/2000/svg" viewBox="0 0 352.97 292.21">
  <defs>
    <style>
      .cls-1 {
        fill: #fff;
        stroke-width: 0px;
      }
    </style>
  </defs>
  <path class="cls-1" d="m343.4,5.05C337.59,1.35,331.13,0,324.31,0c-27.47.02-54.94,0-82.42,0C214.42.02,186.95.04,159.48,0c-5.81,0-11.29,1.16-16.6,3.52-24.39,10.86-48.83,21.64-73.24,32.47-7.09,3.14-14.27,6.09-21.19,9.57-6.43,3.23-10.87,8.4-10.83,15.97.03,7.43,4.79,11.99,10.98,15.09,9.66,4.83,19.55,4.58,29.41.58,6.78-2.75,13.39-5.95,20.25-8.5,9.51-3.54,18.12-9.65,28.73-10.24.75-.04,2.05-1.97,1.98-2.95-.54-8.11,2.57-14.78,7.99-20.41,8.58-8.91,19.45-12.37,31.57-12.4,16.38-.05,32.75-.01,49.13-.01,8.62,0,17.24,0,25.85,0,3.12,0,5.79.85,7.13,3.96,2.16,5.02-1.16,9.64-7.04,9.64-25.1.04-50.2.02-75.3.03-7.09,0-13.68,1.7-19.33,6.15-8.77,6.92-8.64,17.24.3,23.99,5.83,4.41,12.55,5.96,19.74,5.95,23.16-.02,46.32-.14,69.49.09,4.86.05,9.86.88,14.52,2.27,18.69,5.61,37.42,10.97,56.94,12.81,10.02.94,20.04,1.22,29.68-2.46,8.88-3.4,13.28-9.89,13.28-19.34,0-14.54-.16-29.08.07-43.61.12-7.74-3.31-13.15-9.56-17.12Z"/>
  <path class="cls-1" d="m20.11,222.4c75.2.01,150.41.01,225.61,0,11.31,0,19.81-8.42,19.86-19.8.07-17.01.07-34.03,0-51.04-.05-11.86-8.37-20.13-20.19-20.16-15.3-.03-30.6,0-45.9.01-.93,0-1.86.12-1.98.12-2.69,7.26-4.54,14.33-7.85,20.63-3.34,6.34-8.12,11.92-12.34,17.93.86,0,1.92,0,2.97,0,4.96,0,9.92-.11,14.87.04,5.71.18,8.79,5.87,5.85,10.6-1.72,2.75-4.46,3.01-7.38,3.01-40.19-.02-80.37,0-120.56,0-6.59,0-9.62-2.19-9.53-6.9.09-4.63,3.02-6.74,9.4-6.74,5.22,0,10.44,0,16.7,0-11.62-11.02-18.07-23.74-20.58-38.7h-3.76c-14.98,0-29.95-.03-44.93,0-12,.03-20.3,8.32-20.33,20.35-.04,16.91-.05,33.81,0,50.72.04,11.55,8.49,19.93,20.07,19.93Z"/>
  <path class="cls-1" d="m246.28,236.01c-75.52,0-151.05,0-226.57.02-6.07,0-11.71-1.53-16.96-4.54-.71-.41-1.47-.74-2.53-1.26-.07,1.37-.17,2.4-.17,3.43-.01,12.71-.03,25.41,0,38.12.03,12.03,8.26,20.4,20.27,20.41,74.99.03,149.97.03,224.96,0,12.05,0,20.29-8.33,20.32-20.34.03-12.71.01-25.41,0-38.12,0-1.04-.09-2.08-.17-3.73-6.23,3.94-12.38,6.02-19.14,6.02Z"/>
  <path class="cls-1" d="m103.32,163.83c5.94,4.18,12.16,7.23,19.78,6.32,3.19-.38,6.45-.06,9.68-.06,4.74,0,9.48.14,14.21-.06,2.2-.09,4.52-.47,6.53-1.32,31.11-13.28,39.88-56.05,16.47-80.43-1.19-1.23-3.22-2.14-4.94-2.3-10.88-1-20.53-4.54-28.32-12.5-.86-.88-2.38-1.48-3.62-1.53-4.87-.2-9.63.34-14.12,2.61-6.12,3.09-13.14,4.96-18.42,9.07-25.54,19.89-23.9,61.46,2.74,80.2Zm39.17-32.42c-3.34-1.05-6.86-1.83-10.35-2.03-6.46-.36-12.62-1.43-18.08-5.12-11.63-7.87-11.19-21.87,1.01-28.82,2.4-1.37,5.09-2.39,7.77-3.06,2.38-.6,3.24-1.51,3.29-4.07.04-1.97.82-4.38,2.14-5.78,3.51-3.72,9.56-1.87,10.91,3.11.42,1.54.49,3.17.81,5.34,4.64,0,9.15-.19,13.64.05,5.3.28,8.03,5.36,5.6,10.07-1.42,2.76-3.92,3.46-6.78,3.47-6.68,0-13.38-.34-20.02.15-3.84.29-7.76,1.53-11.31,3.09-2.84,1.25-2.86,3.47-.02,4.64,3.89,1.6,8.12,2.84,12.29,3.17,7.37.59,14.3,2.02,20.19,6.7,8.94,7.11,8.88,18.36-.28,25.25-2.62,1.97-5.68,3.61-8.8,4.57-3.29,1.01-5.43,1.8-5.08,6.03.29,3.58-3.01,6.17-6.52,6.21-3.53.04-6.35-2.43-6.81-6.05-.16-1.27-.14-2.56-.23-4.3-4.6,0-9.09.1-13.58-.03-5.05-.14-7.97-4.52-6.25-9.22,1.1-3.01,3.44-4.28,6.54-4.29,6.57-.02,13.15.2,19.7-.12,3.48-.17,7-.99,10.34-2.06,1.52-.49,2.61-2.28,3.9-3.49-1.32-1.18-2.46-2.94-4-3.43Z"/>
</svg>