<?xml version="1.0" encoding="UTF-8"?>
<svg id="Layer_1" data-name="Layer 1" xmlns="http://www.w3.org/2000/svg" viewBox="0 0 400 641.81">
  <defs>
    <style>
      .cls-1 {
        opacity: .25;
      }

      .cls-2 {
        fill: #187347;
      }

      .cls-2, .cls-3 {
        stroke-width: 0px;
      }

      .cls-3 {
        fill: #fff;
      }
    </style>
  </defs>
  <rect class="cls-2" width="400" height="641.81"/>
  <g class="cls-1">
    <path class="cls-3" d="m264.53,125.14c2.55,4.38,4.49,9.05,7.28,13.33,3.89,5.96,7.42,12.2,11.05,18.31,1,1.65,2.09,1.78,3.88,1.13,10.77-3.82,21.87-6.68,32.36-11.37,3.49-1.57,7.18-2.75,10.24-5.18,6.13-4.83,7.11-7.13,5.51-12.98-2.04-7.47-4.08-14.91-8.02-21.75-1.56-2.66-3.64-4.62-5.52-7.1-1.64-.18-3.06-1.33-5.18-.53-3.36,1.32-6.51,2.97-9.77,4.46-8.62,3.93-17.29,7.65-25.95,11.52-4.79,2.14-9.42,4.64-14.32,6.46-2.46.91-2.65,1.92-1.6,3.74l.02-.03Z"/>
    <path class="cls-3" d="m249.88,241.48c3.38,2.58,5.29,5.9,7.71,8.73,5.91,6.92,10.53,14.73,14.95,22.67.65,1.16,1.05,1.33,2.1,1.18,2.4-.39,4.9-.54,7.25-.99,5.28-1.04,10.66-1.8,15.99-2.68,6.65-1.1,13.31-2.13,19.96-3.23,5.24-.88,10.44-1.88,15.71-2.69,7.3-1.12,14.72-2.09,21.39-5.21,8.44-3.94,9.48-4.55,8.81-13.33-.45-5.97-1.55-11.95-2.86-17.81-1.15-5.26-2.59-10.49-5.27-15.28-.69-1.24-1.67-1.65-2.77-1.33-6.95,1.95-13.88,4.02-20.79,6.02-7.77,2.26-15.57,4.55-23.36,6.78v-.04c-5.31,1.52-10.68,2.96-16.02,4.49-5.99,1.69-12,3.38-17.95,5.22-8.14,2.43-16.39,4.45-24.86,7.49Z"/>
    <path class="cls-3" d="m311.37,201.87c-7.59,5.12-15.09,10.42-22.54,15.72-2.34,1.62-4.49,3.44-6.72,5.16,3.14-1.43,6.57-1.26,9.72-2.18,5.47-1.63,10.99-3.11,16.51-4.63,8.27-2.29,16.41-5.26,24.58-7.98,5.46-1.83,10.88-3.77,15.8-6.78,6.44-3.96,9.5-10.62,7.49-18.06-1.2-4.48-2.36-8.95-3.42-13.46-1.23-5.29-3.43-10.13-6.42-14.58-1.77-2.64-4.44-4.52-7.23-5.85-1.91-.91-3.74.77-5.57,1.44-7.63,2.91-15.32,5.74-22.94,8.62-6.58,2.48-13.11,5.05-19.67,7.57v.03c-.88.33-2.11.26-1,1.85,2.66,3.78,4.92,7.9,7.9,11.41,5.11,6.01,9.02,12.83,14.05,18.88.92,1.11.98,1.84-.55,2.84Z"/>
    <path class="cls-3" d="m380.41,52.93c.79,2.35,2.73,1.49,3.79,1.4,5.29-.5,10.55-.41,15.8-.2V0h-40.81c3.71,7.09,7.09,14.36,10.17,21.79,4.22,10.21,7.61,20.69,11.05,31.14Z"/>
    <path class="cls-3" d="m102.38,586.76c-9.06-3.83-18.39-7.78-28.04-9.83-8.89-1.89-16.81-.37-25.05-5.35-4.12-2.48-19.9-14-23.68-17.23-7.59-6.5-8.9-15.16-13.93-23.24-3.42-5.48-7.26-11.07-11.67-16v94.71l44.86,31.99h137.71c-17.85-12.73-35.69-25.45-53.54-38.18-8.7-6.2-16.73-12.68-26.64-16.87Z"/>
    <path class="cls-3" d="m283.39,319.05c.2,1.47.69,1.84,1.82,1.85,1.33,0,2.66-.13,3.98-.23,8.16-.53,16.32-1.04,24.48-1.58,6.05-.39,12.09-1.04,18.15-1.24,6-.22,11.95-.87,17.88-1.63,4.59-.54,9.7-.79,12-5.48,3.92-4.96,4.15-10.57,4.49-15.88.44-6.4.04-12.92-1.29-19.23-1.09-5.18-3.93-7.7-8.95-6.31-2.83.78-5.65,1.55-8.5,2.2-12.76,2.81-25.52,5.6-38.29,8.37v-.02c-9.67,2.13-19.37,4.32-29.08,6.38-1.61.33-1.81,1.18-1.5,2.38,2.55,9.98,3.32,20.24,4.82,30.4Z"/>
    <path class="cls-3" d="m384.25,425.24c-7.13,1.63-14.25,3.46-21.39,4.97-4.64.99-8.99,2.96-13.74,3.78-14.15,2.5-28.34,4.58-42.57,6.34-12.25,1.53-48.82,3.62-48.82,3.62l-65.27,2.23s10.55-16.83,10.76-16.82c0,0,0,0,0-.01.25,0,.61,0,1.04-.02-.37.01-.72.02-1.04.02,9.04-13.26,7.43-23.73,40.32-52.42,2.47,1.76,8.57,4.42,17.83,5.15,7.48-1.21,14.83-3.08,21.77-6.27,3.96-1.79,6.77-4.93,9.74-7.86,3.7-3.67,30.58-38.75,31.97-41.24-3.94.14-7.62.19-11.31.41-6.1.39-12.18.93-18.26,1.38-3.62.27-7.27.54-10.87.71-1.42.05-2.17.91-2.57,2.01-1.88,4.91-3.57,9.95-5.77,14.73-.21.43.09,1.23-.78.96-.48-.15-.69-.49-.65-1.22.75-7.56.56-15.18.07-22.73-.46-6.87-1.68-13.71-3.32-20.41-1.63-6.59-3.75-13.06-6.68-19.19-3.17-6.6-6.57-13.04-10.71-19.16-4.4-6.5-9.75-12.14-14.75-18.07-1.67-1.99-4.31-3.2-6.75-4.93-.03,4.86.42,9.6-.04,14.35-.56,5.81-1.26,11.59-2.21,17.33-.83,4.96-1.7,9.9-2.59,14.84-1.36,7.7-3.05,15.36-4.02,23.12-.64,5.1-1.19,10.31-.37,15.49.2,1.38-.02,1.82-1.45,2.13-9.7,2.02-19.44,3.89-28.98,6.6-1.11.3-2.37.07-4.06.15,1.84-2.31,4.19-3.03,6.18-4.12,5.64-3.17,11.42-6.06,17.23-8.92,2.74-1.38,1.72-3.94,1.83-5.82.41-6.13,1.49-12.15,2.57-18.14.96-5.24,2.5-10.35,3.4-15.55,1.32-7.51,2.79-15.06,3.26-22.73.69-11.1-.6-21.93-4.3-32.42-2-5.63-5.02-10.75-7.97-15.92-3.41-5.99-7.99-11.01-12.22-16.33-1.01-1.23-1.08-2.24-.51-3.14,1.75-2.76,3.36-5.7,6.53-7.26,2.5-1.21,3.98-.6,4.48,2.15.59,3.3,1.53,6.29,4.68,8.24,1.88,1.15,3.66,1.47,5.54.52,2.07-1.04,3.36-2.68,3.71-5.2.57-4.4-1.87-7.57-3.98-10.88-.5-.82-.47-1.13-.18-2.01,1.28-3.7,4.16-6.14,6.68-8.86,1.86-2.03,4.09-3.53,6.51-4.83.48-.26,1.04-.54,1.48-.08.53.57-.13.97-.41,1.35-2.17,3.04-4,6.16-4.59,10.03-.98,6.21.51,11.24,5.32,15.51,5.05,4.5,10.58,8.3,16.4,11.72.86.52,1.73.97,2.34,1.74-.29,1.12-1.09.48-1.53.38-6.96-1.39-13.9-2.9-21.07-2.73-2.89.06-5.62.6-8.39,1.41-1.91.55-1.87,1.54-.89,2.6,3.59,3.84,6.44,8.31,9.88,12.23,3.75,4.29,7.36,8.68,10.92,13.1.66.83.89.42,1.42.17,3.53-1.73,6.74-4.03,10.17-5.96,3.71-2.09,7.21-4.62,10.98-6.49,4-1.98,7.63-4.54,11.53-6.66,6.86-3.73,13.43-8.06,20.11-12.08.9-.54,1.3-.64.49-2.01-4.24-7.23-8.83-14.24-13.18-21.38-3.11-5.09-6.08-10.3-8.94-15.58-3.34-6.12-6.76-12.24-9.38-18.72-2.8-6.98-5.66-13.91-9.76-20.22-4.85-7.47-9.52-8.63-18.72-5.28-8.19,2.98-16.37,5.96-24.53,8.93-6.42,2.36-12.9,4.62-19.34,7.03-5.37,2.04-10.86,3.78-16.16,5.96-7.59,3.12-15.81,4.45-23.12,8.2-4.33,2.21-8.28,5.31-9.69,10.34-.83,2.89-1.6,5.77-1.57,8.95.08,11.61-.27,23.24-.38,34.88-.07,8.57.03,17.17-.12,25.71-.1,6.57-.03,13.19-.28,19.77-.42,11.2-.21,22.41-.28,33.62-.03,5.29-.08,10.57-.29,15.86.46,9.29.78,8.53-7.22,17.1-3.58,4.04-7.4,7.84-11.22,11.66-3.04,3.05-6.15,6.08-9.2,9.11-3.88,3.85-7.68,7.79-11.6,11.59-3.47,3.2-6.88,6.33-10.22,9.52l-14.18,13.22s-20.09-52.08-21.19-55.86c-4.75-15.97-8.73-32.17-12.66-48.37-1.62-6.71-2.6-13.57-4.28-20.25-2.19-8.76-2.91-17.8-4.83-26.63-.41-1.86-2.5-31.93-3.8-42.2-2.48-19.45-1.78-38.93-.86-58.42.83-17.5,3.39-34.8,6.96-52,2.15-10.23,4.94-20.32,8.19-30.22,3.77-11.49,8.46-22.67,14.34-33.33.23-.42.47-.83.71-1.25H0v368.42c9.8,5.59,19.7,12.55,27.96,19.79,18.16,15.9,27.32,40.11,32.57,63,2.8,12.19,3.71,24.1,3.6,36.58-.05,6.13-.49,12.24-.77,18.36-.09,2.16-.56,8.75,1.37,10.01,2.69,1.75,5.38-3.31,12.4-10.24,4.65-4.56,9.95-8.2,15.62-11.44,10.75-6.13,21.48-11.9,33.1-16.28,22-8.3,46.47-9.57,69.68-7.61,25.06,2.12,49.97,10.34,72.5,21.26,12,5.83,23.13,13.02,34.26,20.35,7.58,4.99,22.7,10.92,17.34,22.46-5.24,11.28-16.36,2.78-22.76-1.79-27.67-19.73-59.18-35.24-92.98-40.64-16.52-2.65-32.76-3.38-49.35-.74-7.87,1.25-15.94,3.11-23.39,5.98-3.88,1.48-7.54,3.42-11.22,5.33-2.4,1.23-5.31,2.16-7.42,3.87-.02.03-.06.05-.1.07-.69.57-1.29,1.23-1.75,2.01,4.42,1.99,10.17-.98,14.82-2.02,6.42-1.41,13.02-1.9,19.56-2.6,11.89-1.26,24.1.08,35.81,2.29,23.27,4.42,43.95,18.85,60.57,35.07,18.06,17.63,32.84,38.49,50.92,56.07,6.82,6.63,19.48,12.18,14.8,23.69-1.91,4.7-6.86,17.62-6.86,17.62,0,0-.39,1.35-1.13,2.93h100.85v-220.88c-5.2,1.63-10.45,3.11-15.75,4.32Z"/>
    <path class="cls-3" d="m204.29,429.33c.36-.01.77-.03,1.25-.04-.44.02-.86.03-1.25.04Z"/>
    <path class="cls-3" d="m266.77,618.52c-10.04-9.19-19.87-18.64-29.93-27.84-18.91-17.32-38.56-35.9-61.27-48.16-21.16-11.42-47.07-16.2-71.01-14.64-6.03.39-12.23,1.06-18.18,2.26-2.54.51-4.92,1.28-7.33,2.21-2.73,1.05-3.7,2.51-5.92,3.87-4.64,2.85-17.94-7.16-19.26-8.86-1.56-1.98-1.35-6.2-1.66-8.62-3.1-24.65-9.56-47.13-21-69.16-5.74-11.05-14.43-21.4-24.11-29-2.35-1.86-4.71-3.75-7.1-5.6v23.73c3.55,3.55,6.78,7.46,9.63,12.03,3.28,5.29,17.83,26.48,16.84,31.4h-.03c-.89.28-18.52-12.34-26.44-18.04v23.39c6.07,5.13,11.94,10.22,14.85,13.1,6.93,6.85,11.38,15.27,15.81,23.86,2.17,4.21,4.01,9.11,7.4,12.55,3.51,3.54,20.25,15.6,24.53,17.59,4.31,2.01,9.41,1.64,14.02,2.29,9.62,1.38,20.05,4.57,29.13,7.99,4.53,1.71,8.18,4.58,12.39,6.88,4.34,2.35,30.69,19.32,39.54,26.16,8.49,6.56,17,12.82,25.92,18.9,9.21,6.25,17.65,13.29,26.8,19.57,2.62,1.8,5.23,3.61,7.84,5.42h31.06c-1.55-1.11-3.1-2.21-4.65-3.32-13.45-9.59-26.9-19.18-40.35-28.77-19.17-13.67-38.3-27.38-57.5-41-4.71-3.36-9.38-6.76-14.17-10.01-4.47-3.02-9.47-4.7-14.27-7.08-1.95-.96-9.97-3.8-5.25-5.31,3.97-1.27,11.49.49,15.65.89,21.71,2.05,41.67,12.32,59.14,24.82,8.55,6.1,16.84,13.04,24.55,20.18,7.41,6.88,15.77,13.15,22.49,20.7.23.26.45.49.68.75,4.17,4.04,8.26,8.16,12.28,12.35,3.53,3.39,7.06,6.8,10.41,10.37,1.66,1.78,3.27,3.6,4.87,5.43h24.09c-2.62-3.07-5.02-6.71-7.38-9.34-4.24-4.72-8.42-9.67-13.1-13.95Z"/>
  </g>
</svg>