<?xml version="1.0" encoding="UTF-8"?>
<svg id="Layer_1" data-name="Layer 1" xmlns="http://www.w3.org/2000/svg" viewBox="0 0 299.55 292">
  <defs>
    <style>
      .cls-1 {
        fill: #fff;
        stroke-width: 0px;
      }
    </style>
  </defs>
  <path class="cls-1" d="m299.26,166.8c-3.55-15.54-22.44-20.27-34.01-7.78-13.09,14.12-27.15,27.34-40.74,40.99-9.23,9.27-20.19,15.32-33.12,17.39-15.27,2.44-30.6,4.56-45.9,6.8-5.28.78-10.56,1.62-15.87,2.21-2.99.33-5.32-1.63-5.8-4.36-.48-2.72,1.14-5.19,4.03-6.05.85-.25,1.74-.35,2.62-.48,18.05-2.67,36.12-5.23,54.15-8.05,8.03-1.26,13.64-5.85,15.99-13.8,4.24-14.35-6.03-27.04-21.35-26.14-29.21,1.7-58.43,2.88-87.33,8.34-15.12,2.86-28.24,8.32-38.72,19.72-3.46,3.77-7.22,7.27-10.85,10.89-14.03,14-28.06,27.99-42.34,42.24,20.14,14.51,40.05,28.86,60.06,43.28,5.88-5.29,12.69-7.71,20.14-8.65,4.08-.51,8.14-1.24,12.2-1.89,33.07-5.28,66.08-10.91,99.22-15.7,16.32-2.36,29.91-8.56,41.44-20.6,18.63-19.46,37.99-38.24,57.14-57.21,4.08-4.04,7.79-8.2,9.35-13.87v-6.69c-.1-.2-.25-.38-.3-.59Z"/>
  <path class="cls-1" d="m123.18,160.36c19.21-2.29,38.66-2.79,58.02-3.54,14.73-.57,27.44,9.69,30.1,24.22.96,5.26.15,10.84.15,16.41,1.91-1.75,4.02-3.54,5.97-5.49,11.6-11.56,23.14-23.19,34.76-34.72,5.97-5.92,11.3-12.7,20.08-14.98-.21-.92-.29-1.45-.46-1.96-9.12-28.24-24.48-52.54-46.26-72.7-1.14-1.05-3.11-1.69-4.7-1.69-36.21-.09-72.42-.1-108.63.01-1.66,0-3.7.81-4.91,1.95-28.73,26.76-45.92,59.69-52.21,98.37-.73,4.5-1.08,9.06-1.56,13.2,5.84-2.99,11.24-6.36,17.07-8.65,16.86-6.62,34.87-8.31,52.58-10.43Zm51.62-66.41c.15-3.97,2.1-5.93,6.09-5.98,6.56-.09,13.13-.08,19.7,0,3.93.05,6.2,2.2,6.13,5.52-.07,3.19-2.27,5.11-6.07,5.14-4.88.04-9.76,0-14.98,0v5.35c3.28,0,6.37-.04,9.45,0,7.32.11,11.6,4.34,11.73,11.61.03,1.89.06,3.79-.12,5.67-.48,5.09-4.54,9.18-9.66,9.37-5.56.21-11.13.16-16.69.06-3.26-.06-5.34-2.19-5.39-5.16-.06-3.1,2.06-5.35,5.5-5.44,5.09-.13,10.18-.03,15.47-.03v-5.36c-3.26,0-6.44.04-9.63,0-7.19-.11-11.38-4.23-11.55-11.4-.07-3.11-.1-6.24.02-9.35Zm-17.69,32.92c1.39-3.06,3.42-6,5.8-8.37,1.08-1.07,3.86-1.33,5.42-.75,1.53.57,2.49,2.67,3.14,3.44.05,3.73-5.13,11.66-7.71,12.11-1.72.3-4.2-.08-5.34-1.18-1.14-1.1-1.92-3.89-1.3-5.24Zm-35.72-12.83c.47-5.96,4.78-9.82,10.91-10.03,3.31-.11,6.63-.02,10.24-.02v-5.36c-5.17,0-10.24-.02-15.31,0-2.77.01-4.75-1.13-5.53-3.85-.97-3.41,1.21-6.61,4.95-6.75,5.67-.21,11.37-.31,17.02.06,5.6.37,9.38,4.81,9.67,10.5.02.44,0,.89.03,1.33.91,10.64-4.37,15.64-14.5,14.8-2.09-.17-4.2-.02-6.6-.02v5.35c4.38,0,8.68,0,12.99,0,1.22,0,2.49-.1,3.66.17,2.83.67,4.47,2.49,4.28,5.5-.19,2.97-1.93,4.85-4.88,4.91-7.34.15-14.69.15-22.03,0-3.18-.07-4.8-2.26-4.93-5.27-.16-3.78-.25-7.58.05-11.34Z"/>
  <path class="cls-1" d="m116.53,55.11h3.13c24.6,0,49.21,0,73.81,0,6.79,0,13.58.07,20.37-.08,1.02-.02,2.65-.82,2.93-1.64,4.06-11.65,7.96-23.35,11.84-35.06.94-2.85.15-5.21-2.42-6.97-2.57-1.76-5.02-3.68-7.54-5.51-11.54-8.38-26.72-7.71-37.59,1.65-9.94,8.56-19.18,8.54-29.23-.04-7.83-6.69-16.85-8.63-26.83-6.66-8.03,1.58-13.57,7.37-19.74,12-1.03.77-1.52,3.42-1.07,4.83,3.95,12.49,8.16,24.9,12.34,37.49Z"/>
</svg>