<?xml version="1.0" encoding="UTF-8"?>
<svg id="Layer_1" data-name="Layer 1" xmlns="http://www.w3.org/2000/svg" viewBox="0 0 317.47 293.25">
  <defs>
    <style>
      .cls-1 {
        fill: #fff;
        stroke-width: 0px;
      }
    </style>
  </defs>
  <path class="cls-1" d="m316.6,225.91c-2.84-17.38-9.87-33.2-18.25-48.42-18.33-33.32-41.05-63.08-70.15-87.61-2.59-2.18-5.2-3.09-8.57-3.06-17.05.15-34.11.26-51.15-.04-5.16-.09-9.05,1.37-12.95,4.72-20.38,17.5-37.49,37.88-52.48,60.13-12.91,19.16-24.18,39.21-30.99,61.53-4.14,13.56-5.71,27.25-.91,41,7.69,22.03,32.26,38.94,56.69,39.02,21.73.07,43.45.01,65.18.01s41.43-.17,62.14.06c12.53.14,23.92-3.28,34.58-9.64,21.17-12.63,30.85-33.4,26.87-57.69Z"/>
  <path class="cls-1" d="m167.37,70.7c16.92.11,33.85.14,50.77-.04,1.83-.02,4.12-1.12,5.4-2.48,8.27-8.78,16.32-17.78,24.43-26.72.8-.88,1.51-1.85,2.38-2.93-5.39-3.86-10.5-7.51-15.8-11.3-3.95,5.99-7.66,11.59-11.36,17.21-3.84,5.83-8.09,7.3-12.48,4.27-4.41-3.04-4.65-7.36-.72-13.34,3.84-5.85,7.39-11.92,11.6-17.48,4.31-5.68,2.48-11.74,2.68-17.88h-62.91c.15,6.67-1.35,13.1,3.46,19.03,4.38,5.4,7.81,11.59,11.61,17.47,3.3,5.1,2.7,9.51-1.61,12.3-4.18,2.7-8.35,1.56-11.57-3.26-3.95-5.92-7.84-11.89-12.08-18.34-5.48,3.93-10.64,7.63-15.98,11.46,9.5,10.44,18.59,20.54,27.85,30.48.94,1.01,2.85,1.54,4.32,1.55Z"/>
  <path class="cls-1" d="m58.58,73.8c10,.06,19.99.08,29.99-.03,1.08-.01,2.43-.66,3.19-1.46,4.88-5.19,9.64-10.5,14.43-15.78.47-.52.89-1.09,1.41-1.73-3.18-2.28-6.2-4.43-9.33-6.68-2.33,3.54-4.53,6.85-6.71,10.17-2.27,3.45-4.78,4.31-7.37,2.52-2.61-1.8-2.74-4.35-.43-7.88,2.27-3.45,4.36-7.04,6.85-10.33,2.54-3.36,1.47-6.94,1.58-10.56h-37.15c.09,3.94-.8,7.74,2.05,11.24,2.59,3.19,4.61,6.85,6.86,10.32,1.95,3.01,1.59,5.62-.95,7.27-2.46,1.6-4.93.92-6.83-1.92-2.33-3.5-4.63-7.02-7.14-10.83-3.24,2.32-6.28,4.51-9.44,6.77,5.61,6.17,10.98,12.13,16.45,18,.56.6,1.68.91,2.55.92Z"/>
  <path class="cls-1" d="m117.27,108.63c-6.77-8.5-14.31-16.38-22.76-23.5-1.53-1.29-3.07-1.83-5.06-1.81-10.07.09-20.14.15-30.21-.03-3.05-.05-5.35.81-7.65,2.79-12.03,10.34-22.14,22.38-31,35.52-7.63,11.32-14.29,23.16-18.3,36.34-2.44,8.01-3.38,16.09-.54,24.21,4.54,13.01,19.05,23,33.48,23.04,8.09.03,16.17.02,24.26.02.05-.15.08-.29.13-.44,6.81-22.31,18.08-42.37,30.99-61.53,8.19-12.15,17.02-23.74,26.66-34.62Z"/>
</svg>